<svg width="300" height="130" viewBox="0 0 300 130" xmlns="http://www.w3.org/2000/svg" xmlns:xlink="http://www.w3.org/1999/xlink"><title>brand6</title><defs><path id="a" d="M0 0h300v130H0z"/></defs><g fill="none" fill-rule="evenodd"><use fill="#FFF" xlink:href="#a"/><path stroke="#DEDEDE" d="M.5.5h299v129H.5z"/><path d="M177.92 22.9c-1.61 1.005-3.289 2.9-1.999 5.005 1.954 3.187 6.053-.828 6.862.49.356.581-.05 1.052-.523 1.348-.295.185-.62.257-.907.22-.313-.044-.586-.221-.533-.23l-2.927 1.827c1.267 1.791 3.573 1.154 5.346.047 2.838-1.772 3.456-3.765 2.407-5.477-1.887-3.077-6.307.748-7.01-.399-.25-.408-.017-.793.515-1.125.237-.147.497-.224.746-.184.25.04.468.164.471.22l2.793-1.776 8.848.007V54l-39.004.063c-6.351 0-11.5 5.196-11.5 11.604 0 6.41 5.149 11.606 11.5 11.606h39.004v31.093l-42.308.097c-23.419 0-42.404-19.161-42.404-42.796 0-23.634 18.985-42.794 42.404-42.794l28.22.026z" fill="#293E94"/><path d="M133.661 62.245l-2.852 1.782-.727-.578c-.237 1.141-.65 1.763-1.921 2.557-1.685 1.052-3.453.636-4.897-1.719l-3.07-5.009 3.073-1.92 2.725 4.444c.693 1.13 1.284 1.26 2.022.8.887-.554.735-1.436-.045-2.708l-2.426-3.956 3.074-1.92 5.044 8.227zm-3.654-9.095l2.822-1.763.737.592c-.001-.868.676-1.783 1.572-2.36 1.377-.887 2.543-.72 3.451-.071.06-1.405.613-2.467 1.751-3.178 2.261-1.412 3.799-.505 5.176 1.74l2.984 4.867-3.074 1.92-2.57-4.191c-.742-1.21-1.262-1.558-2.075-1.05-.901.563-.568 1.506.038 2.495l2.493 4.066-3.074 1.92-2.57-4.192c-.741-1.21-1.262-1.557-2.074-1.05-.902.563-.57 1.506.038 2.495l2.493 4.067-3.074 1.92-5.044-8.227zm34.853-10.391l-5.043-8.227 3.074-1.92 5.044 8.227zm-7.113-11.602l3.074-1.92 1.424 2.323-3.074 1.92zm6.781.433l2.807-1.754.9.615c.069-.85.404-1.755 1.572-2.485 2.04-1.273 3.78-.601 5.166 1.66l3.023 4.93-3.074 1.92-2.666-4.35c-.501-.816-1.151-1.409-2.023-.865-.946.592-.802 1.392-.157 2.444l2.57 4.192-3.073 1.92-5.045-8.227zM144.78 43.923l2.823-1.763.737.592c0-.868.676-1.783 1.572-2.36 1.377-.886 2.543-.72 3.452-.071.058-1.404.612-2.468 1.75-3.178 2.262-1.412 3.8-.505 5.176 1.74l2.984 4.867-3.074 1.92-2.57-4.192c-.741-1.209-1.262-1.557-2.075-1.05-.901.564-.569 1.507.038 2.495l2.493 4.067-3.074 1.92-2.57-4.192c-.741-1.21-1.261-1.557-2.075-1.05-.901.564-.568 1.506.038 2.495l2.494 4.067-3.074 1.92-5.045-8.227zm-24.75 26.835c-3.31 2.069-7.658 1.036-9.707-2.306-2.05-3.343-1.026-7.729 2.285-9.797l3.999-2.496 1.937 3.16-3.457 2.159a3.418 3.418 0 0 0-1.092 4.68 3.352 3.352 0 0 0 4.638 1.103l3.457-2.16 1.938 3.16-3.997 2.497z" fill="#FFF"/></g></svg>