<svg width="300" height="130" viewBox="0 0 300 130" xmlns="http://www.w3.org/2000/svg" xmlns:xlink="http://www.w3.org/1999/xlink"><title>brand1.svg</title><defs><path id="a" d="M0 0h300v130H0z"/></defs><g fill="none" fill-rule="evenodd"><use fill="#FFF" xlink:href="#a"/><path stroke="#DEDEDE" d="M.5.5h299v129H.5z"/><path d="M150.484 30C117.642 30 91 45.46 91 64.516 91 83.571 117.642 99 150.484 99 183.358 99 210 83.571 210 64.516 210 45.46 183.358 30 150.484 30zm.032 64.134c-29.49 0-53.409-13.299-53.409-29.68 0-16.384 23.92-29.65 53.409-29.65 29.52 0 53.441 13.266 53.441 29.65 0 16.381-23.92 29.68-53.441 29.68z" fill="#000"/><path d="M150.484 30C130.886 30 115 45.453 115 64.5S130.886 99 150.484 99C170.082 99 186 83.547 186 64.5S170.082 30 150.484 30zm-.412 64.008c-16.362 0-29.619-13.228-29.619-29.602 0-16.345 13.257-29.604 29.619-29.604 16.33 0 29.586 13.26 29.586 29.604 0 16.374-13.255 29.602-29.586 29.602z" fill="#000"/><path fill="#000" d="M104.489 45L103 51h98l-3.01-6h-93.501"/><path fill="#000" d="M147 96h6V32h-6z"/><path fill="#000" d="M101 77l1.825 6h93.21L200 77h-99"/><path fill="#FFF" d="M108 73h82V54h-82z"/><path d="M101 58h9v3.278h-.39c-.33-1.684-.78-2.727-3.51-2.727-.84 0-1.14.093-1.14.767v3.769c1.98.03 2.22-1.103 2.43-2.421h.39v5.485h-.39c-.18-1.318-.42-2.514-2.43-2.514v3.801c0 1.072.63 1.103 1.74 1.133V69H101v-.429c.9-.091 1.38-.122 1.38-1.133v-7.875c0-1.073-.66-1.104-1.38-1.134V58m25 7.258c-1.041.095-1.452.158-1.452 1.559v2.133c-.79.573-3.064 1.05-4.517 1.05-4.168 0-6.031-2.991-6.031-5.92 0-3.342 2.306-6.08 5.906-6.08 1.515 0 2.81.827 3.22.827.475 0 .6-.35.79-.764h.443v3.947h-.412c-.599-1.464-1.989-3.437-3.916-3.437-2.4 0-3.095 2.547-3.095 5.475 0 1.178.096 5.38 3.286 5.38 1.452 0 1.736-.51 1.736-1.242v-1.75c0-1.083-.537-1.115-1.705-1.178v-.447H126v.447m20-6.801c-.565.033-.943.458-1.131 1.112L141.536 70h-.44l-2.797-8.11h-.126L135.124 70h-.44l-3.553-10.43c-.283-.85-.44-1.015-1.131-1.113V58h4.872v.457c-.597.033-1.037.066-1.037.72 0 .197.031.392.094.556l1.98 6.278h.032l1.95-5.298-.567-1.667c-.22-.36-.408-.556-1.194-.589V58h5.187v.457c-.723.033-1.195.066-1.195.655 0 .195.126.621.22.947l1.792 5.756h.031l1.855-5.886c.032-.163.126-.36.126-.72 0-.719-.598-.719-1.164-.752V58H146v.457M153 69h-6v-.429c.909-.06 1.589-.122 1.589-1.133v-7.875c0-1.073-.81-1.104-1.589-1.134V58h6v.429c-.81.03-1.622.03-1.622 1.134v7.875c0 1.042.681 1.072 1.622 1.133V69m11.33 0H155v-.429c.883-.091 1.372-.152 1.372-1.133v-7.875c0-1.073-.64-1.104-1.372-1.134V58h5.64v.429c-1.128.03-1.646.06-1.646 1.47v7.661c0 .798.366.92 1.433.92 2.438 0 3.353-1.349 4.085-3.188H165L164.33 69m8.693-7.34c-.283-1.177-1.291-3.118-3.245-3.118-.88 0-1.795.508-1.795 1.59 0 .924.315 1.274 1.701 2.006l2.457 1.21c.567.286 1.859 1.273 1.859 3.119 0 1.496-1.072 3.533-4.158 3.533-1.575 0-2.33-.572-2.835-.572-.378 0-.44.287-.504.572H166v-4.17h.503c.315 1.687 1.292 3.598 3.402 3.598 2.016 0 2.11-1.656 2.11-1.879 0-1.146-.787-1.527-1.89-2.07l-1.102-.54c-2.866-1.368-2.866-2.832-2.866-3.596 0-1.019.536-3.343 3.685-3.343 1.355 0 2.142.573 2.614.573.378 0 .472-.255.536-.573h.503v3.66h-.472M188 64.016c0 3.533-2.529 5.984-6.017 5.984-3.454 0-5.983-2.451-5.983-5.984 0-3.692 2.72-6.016 5.983-6.016 3.297 0 6.017 2.324 6.017 6.016zm-8.992 0c0 1.464.096 5.412 2.975 5.412 2.912 0 3.009-3.948 3.009-5.412 0-2.483-.609-5.443-3.009-5.443-2.366 0-2.975 2.96-2.975 5.443zM188 69.25c.97-.097 1.424-.227 1.424-1.37v-8.184c-.91-1.207-1.181-1.24-1.364-1.24V58h3.364L197 65.402h.03v-5.25c0-1.043-.182-1.598-1.485-1.696V58H199v.456c-1.151.13-1.243.555-1.243 1.37V70h-.454l-7.152-9.359h-.03v6.913c0 1.24.333 1.566 1.515 1.696v.456H188v-.456" fill="#000"/></g></svg>