<svg width="300" height="130" viewBox="0 0 300 130" xmlns="http://www.w3.org/2000/svg" xmlns:xlink="http://www.w3.org/1999/xlink"><title>brand4</title><defs><path id="a" d="M0 0h300v130H0z"/></defs><g fill="none" fill-rule="evenodd"><use fill="#FFF" xlink:href="#a"/><path stroke="#DEDEDE" d="M.5.5h299v129H.5z"/><g fill-rule="nonzero"><path d="M121.07 40.036H97.583l-26.556 50.57h23.488zm16.353 0H124.29l-27.156 50.57h13.135z" fill="#176CAD"/><path fill="#231F20" d="M121.07 81.78H87.913V48.713h33.157z"/><path d="M92.243 59.448s2.99-6.222 6.39-6.222h17.45v6.222h-23.84zm23.839 12.492s-2.99 6.223-6.39 6.223h-17.45V71.94h23.84zm-23.85-9.368s3.164 6.259 7.055 6.259h16.743s-3.573-6.327-7.742-6.327c-4.168 0-16.056.068-16.056.068" fill="#FFF"/><path d="M132.487 74.346c1.288.713 3.482 1.236 5.295 1.236 2.956 0 4.387-1.522 4.387-3.615 0-2.33-1.43-3.472-4.149-5.232-4.388-2.663-6.057-6.04-6.057-8.942 0-5.137 3.434-9.418 10.158-9.418 2.1 0 4.102.572 5.056 1.142l-1.001 5.375c-.907-.57-2.29-1.093-4.102-1.093-2.671 0-3.959 1.615-3.959 3.328 0 1.903.954 2.902 4.436 4.994 4.244 2.569 5.819 5.804 5.819 9.18 0 5.85-4.34 9.702-10.636 9.702-2.575 0-5.104-.664-6.153-1.284l.906-5.373zm24.851 1.426c.286.095.763.095 1.097.095 3.004 0 5.627-2.95 5.627-11.795 0-6.565-1.716-10.56-5.485-10.56-.428 0-.858 0-1.24.143v22.117zm-6.248-26.635c1.573-.38 3.863-.619 6.343-.619 4.054 0 6.868.952 8.919 2.854 2.766 2.474 4.197 6.707 4.197 12.937 0 6.469-1.67 11.083-4.483 13.555-2.147 2.093-5.342 3.092-9.825 3.092-1.956 0-3.911-.19-5.151-.333V49.137zm42.163 20.357c-.143-3.044-.38-7.135-.286-10.606h-.143a139.732 139.732 0 0 1-2.05 9.844l-2.767 11.464h-4.436l-2.67-11.273c-.62-2.569-1.479-6.564-1.956-10.035h-.143a351.006 351.006 0 0 1-.478 10.7l-.523 11.13h-5.39l2.337-32.057h6.582l2.575 11.606c.907 4.042 1.717 7.61 2.29 11.224h.095c.477-3.566 1.192-7.182 2.05-11.224l2.53-11.606h6.58l1.956 32.057h-5.58l-.573-11.224zm14.74-4.804c0 7.277 1.383 10.987 3.91 10.987 2.624 0 3.626-4.757 3.626-11.273 0-5.612-.859-10.7-3.672-10.7-2.48 0-3.864 4.09-3.864 10.986m14.07-.57c0 12.08-4.292 16.98-10.397 16.98-7.297 0-10.16-7.706-10.16-16.506 0-8.75 3.482-16.313 10.588-16.313 7.775 0 9.969 8.514 9.969 15.838" fill="#000"/><path d="M224.278 50.226h.243c.3 0 .507-.131.507-.337 0-.224-.17-.355-.47-.355a.991.991 0 0 0-.28.038v.654zm-.038 1.57h-.767v-2.748c.167-.037.58-.112 1.122-.112.562 0 .825.094 1.032.224.169.112.282.336.282.618 0 .261-.245.522-.62.616v.037c.3.094.47.319.563.71.075.393.131.562.17.655h-.844c-.094-.112-.15-.336-.207-.58-.036-.28-.187-.43-.45-.43h-.28v1.01zm.355-3.682c-1.2 0-2.098 1.009-2.098 2.28 0 1.253.899 2.243 2.117 2.243 1.22.019 2.118-.99 2.118-2.262 0-1.252-.899-2.261-2.118-2.261h-.019zm.039-.73a2.976 2.976 0 0 1 2.98 2.991 2.985 2.985 0 0 1-3 3.01 2.995 2.995 0 0 1-2.998-3.01 2.991 2.991 0 0 1 2.998-2.99h.02z" fill="#231F20"/></g></g></svg>