<svg width="300" height="130" viewBox="0 0 300 130" xmlns="http://www.w3.org/2000/svg" xmlns:xlink="http://www.w3.org/1999/xlink"><title>brand5</title><defs><path id="a" d="M0 0h300v130H0z"/><path id="b" d="M220.619 34.977H.023V.028H220.62z"/></defs><g fill="none" fill-rule="evenodd"><use fill="#FFF" xlink:href="#a"/><path stroke="#DEDEDE" d="M.5.5h299v129H.5z"/><path d="M258.515 56.412c-1.556 0-2.766-1.236-2.766-2.941 0-1.647 1.21-2.883 2.766-2.883 1.555 0 2.794 1.236 2.794 2.883 0 1.705-1.239 2.94-2.794 2.94zm0-6.412c-1.873 0-3.515 1.47-3.515 3.47 0 2.03 1.642 3.53 3.515 3.53 1.901 0 3.485-1.5 3.485-3.53 0-2-1.584-3.47-3.485-3.47z" fill="#1A1919"/><g transform="translate(39 48)"><mask id="c" fill="#fff"><use xlink:href="#b"/></mask><path d="M218.301 4.788V3.612h.782c.39 0 .81.084.81.56 0 .588-.42.616-.921.616h-.67zm2.206-.588c0-.756-.447-1.092-1.34-1.092h-1.452v3.836h.586V5.292h.643l.028.028.977 1.624h.67l-1.09-1.68c.56-.084.978-.392.978-1.064zM16.666 28.868l-7.23 5.908c-.224 0-.447.028-.643.028C2.066 34.804 0 32.06 0 26.236V8.624C0 2.8 2.066.028 8.793.028c6.924 0 8.99 2.772 8.99 8.596v5.936h-6.868V7.392c0-1.092-.81-1.652-1.926-1.652-.95 0-1.954.56-1.954 1.652v20.132c0 1.12 1.005 1.848 1.954 1.848.949 0 1.926-.588 1.926-1.848v-6.86h6.867v5.572c0 .7-.335 2.016-1.116 2.632m13.511-12.236h-2.066l2.066-9.352v.028l2.066 9.324h-2.066zm5.471-15.54H25.04l-5.75 25.76 10.887-8.82.195-.14 11.027 8.96-5.75-25.76zM51.505 35l-6.365-5.124V7.532h-5.08v-6.44h17.977v6.44h-5.053V35h-1.48m8.515 0h16.638v-6.3h-9.352v-8.008h7.844v-6.216h-7.844V7.308h8.85V1.092H60.018V35m32.104-22.568c0 1.316-1.172 2.1-2.261 2.212-.084.028-.195.028-.28.028h-2.01V6.664l2.29.056H90c1.367.028 2.121.896 2.121 2.352v3.36zm7.286 18.452v-8.232c0-3.808-2.233-4.928-4.187-5.348v-.14c1.563-.56 4.187-2.324 4.187-5.88V7.308c0-3.92-3.88-6.216-7.202-6.216H80.174V35h7.398V20.16l2.289-.028h.084c1.144-.028 2.373 1.4 2.373 2.436v8.176c0 1.708.195 3.108.697 4.256h7.063c-.502-1.148-.67-2.548-.67-4.116zm107.085-18.452c0 1.316-1.172 2.1-2.289 2.212-.084.028-.167.028-.251.028h-2.01V6.664l2.261.056h.14c1.395.028 2.15.896 2.15 2.352v3.36zm7.258 18.452v-8.232c0-3.808-2.205-4.928-4.187-5.348v-.14c1.563-.56 4.187-2.324 4.187-5.88V7.308c0-3.92-3.852-6.216-7.202-6.216h-12.032V35h7.426V20.16l2.261-.028h.084c1.172-.028 2.4 1.4 2.4 2.436v8.176c0 1.708.168 3.108.67 4.256h7.063c-.502-1.148-.67-2.548-.67-4.116zM112.724 15.596c-.251.028-.503.028-.81.028h-1.395V6.916h1.228c.363 0 .698.028.977.056 2.624.308 2.233 1.988 2.233 4.34 0 2.212.419 4.004-2.233 4.284zm2.987-14.504h-12.534V35h7.342V21.336h3.796c6.281 0 7.928-3.192 7.928-10.472 0-4.424-1.005-9.772-6.532-9.772zm8.961 33.885h7.258V1.092h-7.258zM136.23 35h15.409v-6.356h-7.929V1.092h-7.48V35m17.335 0h15.381v-6.356h-7.928V1.092h-7.453V35m27.553-12.208h-1.899l1.899-15.12.055-.364 1.843 15.484h-1.898zm4.94-21.7h-9.993L170.315 35h7.397l.81-6.132h5.499l.726 6.132h7.732l-6.42-33.908z" fill="#1A1919" mask="url(#c)"/><path fill="#FFDD31" mask="url(#c)" d="M30.4 20.664L12.674 35h35.453L30.4 20.664"/></g></g></svg>