<svg width="300" height="130" viewBox="0 0 300 130" xmlns="http://www.w3.org/2000/svg" xmlns:xlink="http://www.w3.org/1999/xlink"><title>brand7</title><defs><path id="a" d="M0 0h300v130H0z"/></defs><g fill="none" fill-rule="evenodd"><use fill="#FFF" xlink:href="#a"/><path stroke="#DEDEDE" d="M.5.5h299v129H.5z"/><path d="M78.73 74.805a5.205 5.205 0 0 1-.104-1.03c0-1.317.5-2.634 1.496-3.63a5.116 5.116 0 0 1 3.632-1.496c.345 0 .69.033 1.028.102l-6.053 6.054zm8.883-4.418a5.122 5.122 0 0 1 1.268 3.389 5.118 5.118 0 0 1-1.496 3.632l.004.003a5.14 5.14 0 0 1-3.635 1.483 5.143 5.143 0 0 1-3.391-1.257l7.25-7.25zm-2.812-9.12a5.158 5.158 0 0 1-1.047.106 5.12 5.12 0 0 1-3.632-1.496l-.003.003a5.191 5.191 0 0 1-1.386-4.683l6.068 6.07zm-4.428-8.894a5.115 5.115 0 0 1 3.38-1.263c1.32 0 2.638.499 3.632 1.498v.006a5.108 5.108 0 0 1 1.496 3.627 5.15 5.15 0 0 1-1.255 3.384l-7.253-7.252zm-10.5 7.504l-.007.006.006-.006-.006.006a5.143 5.143 0 0 1-3.636 1.49c-.347 0-.694-.035-1.034-.103l6.063-6.063c.068.34.102.687.102 1.034a5.143 5.143 0 0 1-1.489 3.636zm-7.503-.248a5.133 5.133 0 0 1-1.271-3.388c0-1.319.499-2.632 1.498-3.627l.006-.006a5.096 5.096 0 0 1 3.627-1.498c1.21 0 2.421.424 3.388 1.271L62.37 59.63zm2.845 9.12c.335-.067.675-.1 1.015-.1 1.32 0 2.639.497 3.64 1.492l-.004.004a5.115 5.115 0 0 1 1.495 3.63c0 .343-.032.685-.1 1.02l-6.046-6.046zM61.465 65l1.247-1.246a8.323 8.323 0 0 0 3.518.778 8.284 8.284 0 0 0 5.863-2.421l.007-.005a8.324 8.324 0 0 0 1.643-9.381l1.256-1.258 1.25 1.25a8.333 8.333 0 0 0-.78 3.525 8.29 8.29 0 0 0 2.42 5.864v.005a8.268 8.268 0 0 0 5.865 2.42 8.35 8.35 0 0 0 3.53-.78l1.25 1.25-1.266 1.266a8.318 8.318 0 0 0-3.514-.775 8.27 8.27 0 0 0-5.865 2.42 8.266 8.266 0 0 0-2.42 5.865 8.31 8.31 0 0 0 .775 3.514l-1.245 1.244-1.25-1.251a8.347 8.347 0 0 0 .772-3.507 8.27 8.27 0 0 0-2.421-5.864h-.007a8.284 8.284 0 0 0-5.863-2.421 8.317 8.317 0 0 0-3.503.77L61.465 65zm8.167 12.632a5.162 5.162 0 0 1-3.402 1.263 5.13 5.13 0 0 1-3.633-1.486 5.106 5.106 0 0 1-1.498-3.632 5.12 5.12 0 0 1 1.278-3.4l7.255 7.255zm-9.255-27.25l-.007.007a8.242 8.242 0 0 0-2.43 5.853c0 2.019.733 4.039 2.195 5.624L57 64.999l3.148 3.148a8.255 8.255 0 0 0-2.207 5.629 8.25 8.25 0 0 0 2.436 5.864 8.27 8.27 0 0 0 5.853 2.412c2.019 0 4.041-.73 5.632-2.19L74.999 83l3.133-3.133a8.283 8.283 0 0 0 5.622 2.185 8.28 8.28 0 0 0 5.858-2.412h.006a8.272 8.272 0 0 0 2.421-5.864 8.27 8.27 0 0 0-2.191-5.625L93 65l-3.144-3.143a8.288 8.288 0 0 0 2.183-5.615 8.263 8.263 0 0 0-2.42-5.86l-.004.004a8.255 8.255 0 0 0-5.861-2.433 8.252 8.252 0 0 0-5.61 2.192L74.998 47l-3.145 3.146a8.277 8.277 0 0 0-5.624-2.194c-2.117 0-4.238.81-5.853 2.43zm162.474 22.619c.265 6.025 5.43 7.999 10.728 7.999C238.79 81 244 79.07 244 73.089c0-4.215-3.582-5.54-7.239-6.379-3.581-.828-7.116-1.136-7.116-3.376 0-1.854 2.083-2.12 3.492-2.12 2.25 0 4.112.663 4.29 3.08h5.951c-.476-5.584-5.076-7.25-10.065-7.25-4.9 0-9.93 1.49-9.93 7.294 0 4.006 3.613 5.275 7.236 6.07 4.502.97 7.105 1.62 7.105 3.52 0 2.195-2.293 2.901-4.1 2.901-2.473 0-4.765-1.103-4.81-3.828h-5.963zm-23.423 7.382h6.264V68.477c0-4.625 1.462-6.511 4.865-6.511 2.915 0 4.013 1.842 4.013 5.584v12.833h6.274V66.4c0-5.616-1.673-9.357-8.346-9.357-2.65 0-5.387 1.225-6.984 3.774h-.133v-3.156h-5.953v22.72zm-9.121-26.24h6.273V49h-6.273v5.142zm0 26.24h6.273v-22.72h-6.273v22.72zm-24.164 0h6.262v-7.825l2.439-2.328 6.262 10.153h7.604l-9.587-14.367 8.613-8.354h-7.416l-7.915 8.177V49h-6.262v31.383zm-15.651 0h6.274v-10.24c0-3.995 1.584-7.295 6.174-7.295.753 0 1.684.089 2.26.222v-5.806a4.739 4.739 0 0 0-1.374-.22c-3.048 0-6.14 1.975-7.283 4.833h-.088v-4.215h-5.963v22.72zm-18.523-13.805c.089-1.753 1.23-4.833 5.21-4.833 3.048 0 4.411 1.678 4.988 4.833H131.97zm16.472 3.962c.443-6.985-3.314-13.496-11.085-13.496-6.938 0-11.66 5.186-11.66 12.006 0 7.03 4.467 11.95 11.66 11.95 5.166 0 8.924-2.283 10.686-7.647h-5.52c-.399 1.413-2.428 2.947-4.944 2.947-3.492 0-5.43-1.798-5.61-5.76h16.473zm-40.514-16.177h5.387c3.226 0 6.097.706 6.097 4.7 0 4.007-2.871 4.7-6.097 4.7h-5.387v-9.4zM101 80.383h6.927V69.139h7.283c7.87 0 10.917-4.978 10.917-10.076 0-5.097-3.047-10.063-10.917-10.063H101v31.383z" fill="#004A86"/></g></svg>