<svg width="300" height="130" viewBox="0 0 300 130" xmlns="http://www.w3.org/2000/svg" xmlns:xlink="http://www.w3.org/1999/xlink"><title>brand3</title><defs><path id="a" d="M0 0h300v130H0z"/></defs><g fill="none" fill-rule="evenodd"><use fill="#FFF" xlink:href="#a"/><path stroke="#DEDEDE" d="M.5.5h299v129H.5z"/><path d="M63.672 73.482h6.639V46.97h-6.639v26.512zm171.206 9.672c1.011 0 1.89-.879 1.89-1.934s-.879-1.935-1.89-1.935h-.088c-2.55 0-2.506 3.869 0 3.869h.088zm0-4.396a2.44 2.44 0 0 1 2.374 2.462 2.47 2.47 0 0 1-2.374 2.462h-.088c-1.319 0-2.418-1.143-2.418-2.462 0-1.363 1.099-2.462 2.418-2.462h.088zm0 3.121l.264.616h.879l-.572-1.187c.352-.088.528-.352.528-.704 0-.615-.616-.747-1.099-.791h-1.143v2.682h.835v-1.011h.088l.22.395zm0-1.539c.132.045.264.132.264.308 0 .22-.132.308-.264.308-.044 0-.088.044-.132.044h-.176v-.66h.308zm-65.203-22.73c7.211 0 13.102 5.891 13.102 13.058 0 7.21-5.891 13.058-13.102 13.058-.571 0-1.099 0-1.626-.088v-6.727a6.59 6.59 0 0 0 1.626.22c3.562 0 6.463-2.902 6.463-6.463s-2.901-6.419-6.463-6.419c-3.561 0-6.463 2.858-6.463 6.419 0 .747.132 1.495.396 2.154h-6.859c-.088-.703-.176-1.407-.176-2.154 0-7.167 5.892-13.058 13.102-13.058zM96.603 83.814h-8.441l-15.829-18.07L88.777 46.97h8.486L80.775 65.744l15.828 18.07zm4.705-25.853v12.883c0 .703.132 1.363.351 1.978h-6.815c-.132-.615-.176-1.319-.176-1.978V57.961h6.64zm114.884-.351c7.21 0 13.102 5.891 13.102 13.058v13.058h-6.639v-1.671c-1.935 1.055-4.133 1.671-6.463 1.671-.528 0-1.099 0-1.627-.088v-6.727c.528.132 1.055.22 1.627.22 3.385 0 6.199-2.638 6.463-5.936v-.527c0-3.561-2.902-6.419-6.463-6.419s-6.463 2.858-6.463 6.419c0 .747.176 1.495.395 2.154h-6.814a11.544 11.544 0 0 1-.176-2.154c0-7.167 5.847-13.058 13.058-13.058zm-21.675-10.64h-6.683v36.8h6.683V63.853h6.814v-6.639h-6.814V46.97zm-61.422 0h-6.639v23.874c0 .659.088 1.363.176 1.978h6.859a4.963 4.963 0 0 1-.396-1.978v-.704c.264-3.297 3.078-5.891 6.463-5.891a6.399 6.399 0 0 1 6.42 6.419c0 3.561-2.858 6.463-6.42 6.463a6.313 6.313 0 0 1-1.626-.22v6.727c.527.088 1.055.088 1.626.088 7.211 0 13.015-5.848 13.015-13.058 0-7.167-5.804-13.058-13.015-13.058-2.33 0-4.528.615-6.463 1.715V46.97zM114.19 57.961h6.639v12.883c-.132 6.023-5.936 12.882-13.102 12.882-.528 0-1.099 0-1.627-.088v-6.727c.528.132 1.055.22 1.627.22 3.473 0 6.287-4.265 6.463-6.287V57.961z" fill="#1A1919"/></g></svg>