<svg width="300" height="130" viewBox="0 0 300 130" xmlns="http://www.w3.org/2000/svg" xmlns:xlink="http://www.w3.org/1999/xlink"><title>brand2.svg</title><defs><path id="a" d="M0 0h300v130H0z"/></defs><g fill="none" fill-rule="evenodd"><use fill="#FFF" xlink:href="#a"/><path stroke="#DEDEDE" d="M.5.5h299v129H.5z"/><path d="M97.941 51.272c-5.02-2.41-10.744-3.766-16.719-3.766-5.975 0-11.699 1.356-16.72 3.816-1.758 4.218-2.711 8.888-2.711 13.708 0 4.87.953 9.49 2.711 13.758a38.738 38.738 0 0 0 16.72 3.816 38.73 38.73 0 0 0 16.719-3.816 35.781 35.781 0 0 0 2.762-13.758c0-4.82-1.004-9.49-2.762-13.758" fill="#080908"/><path d="M96.737 52.326a37.14 37.14 0 0 0-15.515-3.414 37.136 37.136 0 0 0-15.515 3.414 34.633 34.633 0 0 0-2.41 12.704c0 4.469.853 8.786 2.41 12.703 4.669 2.209 9.992 3.414 15.515 3.414s10.895-1.205 15.515-3.414c1.606-3.917 2.46-8.184 2.46-12.703 0-4.469-.904-8.737-2.46-12.704" fill="#FFFFFE"/><path d="M75.799 60.963c-.803 1.657-1.355 3.465-1.607 5.523-.05 0-.452.05-.452.05-1.757.152-3.514.302-5.221.954l.1.653c2.812 3.464 7.08 5.573 7.08 5.573l-.804-1.556c-.201-.151-.803-.301-.803-.301-1.908-.603-3.264-3.113-3.465-3.515 1.557 0 2.963.452 4.268.904.904.251 1.758.552 2.611.652 1.507.252 3.063 0 4.519-.201 1.155-.15 2.26-.15 3.364-.049.151.15 1.306 1.556 2.461 2.158 1.406.703 5.473 1.959 5.673 2.008.101.051 1.657 1.658 2.662 3.466-4.62 2.108-9.792 3.213-14.963 3.213-5.172 0-10.344-1.105-14.963-3.213-1.506-3.917-2.31-8.034-2.31-12.252 0-4.168.804-8.285 2.31-12.201 4.619-2.109 9.791-3.213 14.963-3.213 5.222 0 10.393 1.104 14.963 3.213 1.506 3.916 2.309 8.033 2.309 12.201 0 3.866-.653 7.632-1.908 11.197-1.456-2.511-2.058-3.264-2.058-3.264-.051 0-2.059-1.054-2.561-1.506-.402-.351-.603-1.055-.854-1.858-.301-1.155-.703-2.56-1.807-3.715l1.255-.503c-.352-2.359-3.163-3.866-3.213-3.866l-.051.05c1.105 1.356 1.305 2.461 1.305 3.164 0 .351-.05.602-.1.703-.301-.151-2.36-.804-7.13-.603-.652 0-1.656-.05-2.259-.602-.352-.301-.503-.805-.503-1.356 0-1.657.704-3.866.804-4.168l1.205.151c1.507-.803 2.059-1.557 2.109-1.657a59.753 59.753 0 0 0-2.912.452c.1-.251.402-1.205.402-2.26 0-1.154-.352-2.409-1.808-3.163l-.1.051c.05.049.853.953.853 2.158 0 .352-.05.754-.201 1.105a4.02 4.02 0 0 0-1.355-.201c-.302-1.004-1.155-1.807-2.31-2.209l-.05.051s1.255.903 1.305 2.158c-.602.05-.954.151-1.707.352-.351-.502-1.054-.904-2.008-1.004v.1s1.104.351 1.305 1.205c-.652.301-1.456.753-1.908 1.155l.05.05c2.812-1.054 5.423-1.305 6.076-.502.15.151.201.302.201.502 0 .201-.101.502-.301.804-1.356.301-3.465.853-5.172 1.506l.251.703s1.707.351 2.36.502c0 0 .251.05.1.251m31.03 8.887s1.657.603 3.515.603c2.008 0 3.213-.301 3.916-1.004.553-.553.804-1.507.753-2.963v-9.44h2.963v9.892c-.05 4.368-2.159 6.226-7.08 6.226-2.41 0-4.067-.402-4.067-.402V69.85m19.783-9.942c4.72 0 7.481 2.511 7.481 6.728 0 3.014-1.958 6.528-7.481 6.528-5.573 0-7.531-3.514-7.531-6.528 0-4.217 2.811-6.728 7.531-6.728zm4.569 6.578c0-2.56-1.657-4.017-4.569-4.017s-4.619 1.457-4.619 4.017c0 3.565 2.912 4.067 4.619 4.067 1.707 0 4.569-.502 4.569-4.067zm14.712-6.276v5.021h-7.582V60.21h-2.912v12.652h2.912v-5.071h7.582v5.071h2.962V60.21h-2.962m44.085 10.042v-2.461h6.728v-2.56h-6.728V62.77h8.686v-2.56h-11.649v12.652h11.649v-2.61h-8.686m13.155 0v-2.461h6.728v-2.56h-6.728V62.77h8.737v-2.56h-11.65v12.652h11.65v-2.61h-8.737m27.616 0v-2.461h6.728v-2.56h-6.728V62.77h8.736v-2.56h-11.648v12.652h11.648v-2.61h-8.736m-53.726-10.595c3.816 0 6.026 1.908 6.026 5.222 0 4.67-3.766 5.373-6.026 5.373h-4.167V59.657h4.167zm0-2.611h-7.079v15.816h7.079c6.628 0 8.938-4.217 8.938-7.782 0-5.021-3.364-8.034-8.938-8.034zm46.194 10.997c2.259-.553 3.063-2.26 3.063-3.766 0-2.561-1.657-4.067-4.519-4.067h-8.285v12.652h2.913v-4.618h3.464l3.515 4.618h3.565l-3.716-4.819zm-6.828-2.411V62.77h5.372c1.004 0 1.607.553 1.607 1.406 0 1.256-1.004 1.456-1.607 1.456h-5.372zm-55.232 7.23l-7.632-8.635v8.635h-2.912V60.21h2.912l7.632 8.536V60.21h2.912v12.652h-2.912" fill="#080908"/></g></svg>