<svg width="90" height="90" viewBox="0 0 90 90" xmlns="http://www.w3.org/2000/svg"><title>icon3.svg</title><g fill="none" fill-rule="evenodd"><circle fill="#FFF" cx="45" cy="45" r="45"/><g fill-rule="nonzero"><g fill="#333"><path d="M63.433 37.486c0-9.672-7.877-17.641-17.56-17.765l-.225-.002c-8.36 0-15.667 5.947-17.426 14.218a17.284 17.284 0 0 0-.163 6.263l-5.232 9.346 5.785 1.653.011 9.464h7.738v6.955h1.548v-8.5h-7.74l-.012-9.084-5.026-1.437 4.544-8.115-.046-.269a15.782 15.782 0 0 1 .107-5.954c1.621-7.627 8.392-13.057 16.118-12.992 8.84.112 16.032 7.39 16.032 16.22l.002 2.82a18.8 18.8 0 0 1-8.166 15.505l-.335.23v11.576h1.548V56.85a20.344 20.344 0 0 0 8.5-16.544l-.002-2.819z"/><path d="M58.804 39.025a4.5 4.5 0 0 0-.321-1.66 4.56 4.56 0 0 0 1.095-2.977 4.647 4.647 0 0 0-3.87-4.573v-.064a5.42 5.42 0 0 0-5.416-5.41c-.778 0-1.545.17-2.252.494a4.598 4.598 0 0 0-6.88.614 4.54 4.54 0 0 0-1.703-.335 4.645 4.645 0 0 0-4.635 4.907 4.624 4.624 0 0 0-3.104 4.367c0 .99.324 1.95.921 2.751a4.344 4.344 0 0 0-.147 1.113 4.645 4.645 0 0 0 4.643 4.637c.566 0 1.123-.108 1.663-.322.308.26.649.477 1.018.653l.662-1.398a3.126 3.126 0 0 1-.961-.702l-.407-.438-.526.282c-.47.252-.958.38-1.449.38a3.097 3.097 0 0 1-3.095-3.092c0-.328.062-.662.19-1.024l.154-.434-.309-.342a3.075 3.075 0 0 1-.81-2.064 3.08 3.08 0 0 1 2.499-3.02 2.81 2.81 0 0 1 .597-.071c.983 0 1.885.45 2.476 1.235l1.237-.93a4.614 4.614 0 0 0-3.713-1.85 3.097 3.097 0 0 1 3.096-3.092 3.073 3.073 0 0 1 .73.096c.085.02.167.05.25.078.207.072.41.16.608.28l.189.113a3.084 3.084 0 0 1 1.319 2.524H44.1c0-1.395-.625-2.64-1.605-3.49a3.058 3.058 0 0 1 2.38-1.147c.927 0 1.802.425 2.4 1.167l.426.529.58-.354a3.853 3.853 0 0 1 2.01-.569 3.871 3.871 0 0 1 3.87 3.864c0 .023-.006.049-.006.071-2.19.372-3.863 2.275-3.863 4.566h1.547a3.093 3.093 0 0 1 3.034-3.085l.103-.006a3.097 3.097 0 0 1 3.055 3.091c0 .86-.355 1.661-.998 2.258l-.438.406.282.525c.252.47.38.958.38 1.448a3.097 3.097 0 0 1-3.096 3.091 3.08 3.08 0 0 1-2.053-.798l-.85-.76-.393 1.07a3.113 3.113 0 0 1-2.261 1.959l.319 1.512a4.607 4.607 0 0 0 2.957-2.048 4.59 4.59 0 0 0 2.281.61 4.644 4.644 0 0 0 4.643-4.636z"/></g><path fill="#F9BA48" d="M42.531 58.406l.77-11.6-4.614-3.094 7.689-13.147-.769 10.827 5.382 3.867z"/></g></g></svg>