<svg width="90" height="90" viewBox="0 0 90 90" xmlns="http://www.w3.org/2000/svg"><title>icon2.svg</title><g fill="none" fill-rule="evenodd"><circle fill="#FFF" cx="45" cy="45" r="45"/><g fill-rule="nonzero"><path d="M47.863 41.914h-.271a10.568 10.568 0 0 1-6.558 2.277 10.57 10.57 0 0 1-6.557-2.277h-7.859v12.14h28.833v-12.14h-7.588z" fill="#F9BA48"/><path d="M67.591 57.09h-.758v-8.347h-3.107l-.76-7.587H56.21v-6.83h-3.833c.017-.251.04-.502.04-.758a11.34 11.34 0 0 0-3.188-7.88l.531-.532 1.361 1.36 1.073-1.072L48.4 21.65l-1.073 1.073 1.36 1.36-.581.582a11.312 11.312 0 0 0-6.312-2.44v-.797h2.276V19.91H38v1.518h2.276v.797a11.318 11.318 0 0 0-6.312 2.44l-.582-.582 1.36-1.36-1.072-1.073-3.795 3.794 1.073 1.073 1.36-1.36.533.531a11.336 11.336 0 0 0-3.188 7.88c0 .256.022.507.039.759h-3.833V57.09H25.1a2.28 2.28 0 0 0-2.276 2.276 2.28 2.28 0 0 0 2.276 2.276h4.553a5.318 5.318 0 0 0 5.311 5.312 5.318 5.318 0 0 0 5.311-5.312h14.417a5.318 5.318 0 0 0 5.311 5.312 5.318 5.318 0 0 0 5.311-5.312h2.277a2.279 2.279 0 0 0 2.276-2.276 2.278 2.278 0 0 0-2.276-2.276zm-5.998-14.417l.607 6.07h-5.99v-6.07h5.383zM41.034 23.704c5.44 0 9.864 4.425 9.864 9.864 0 5.44-4.425 9.864-9.864 9.864-5.438 0-9.863-4.425-9.863-9.864 0-5.439 4.425-9.864 9.863-9.864zM25.86 60.124h-.76a.76.76 0 0 1 0-1.517h.76v1.518zm9.105 5.312a3.798 3.798 0 0 1-3.793-3.794 3.798 3.798 0 0 1 3.793-3.794 3.798 3.798 0 0 1 3.794 3.794 3.798 3.798 0 0 1-3.794 3.794zm5.088-5.311a5.319 5.319 0 0 0-5.088-3.794 5.319 5.319 0 0 0-5.087 3.794h-2.5V35.844h2.505c1.058 5.189 5.656 9.105 11.152 9.105 5.497 0 10.095-3.916 11.153-9.105h2.505v24.281h-14.64zm19.952 5.311a3.798 3.798 0 0 1-3.794-3.794 3.798 3.798 0 0 1 3.794-3.794 3.798 3.798 0 0 1 3.793 3.794 3.798 3.798 0 0 1-3.793 3.794zm5.311-5.311h-.224a5.319 5.319 0 0 0-5.087-3.794 5.291 5.291 0 0 0-3.794 1.602V50.26h9.105v9.864zm2.276 0h-.758v-1.518h.758a.76.76 0 0 1 0 1.518z" fill="#333"/><path d="M34.964 59.366a2.279 2.279 0 0 0-2.276 2.276 2.28 2.28 0 0 0 2.276 2.277 2.279 2.279 0 0 0 2.277-2.277 2.279 2.279 0 0 0-2.277-2.276zm0 3.035a.76.76 0 1 1 .002-1.519.76.76 0 0 1-.002 1.52zm25.04-3.035a2.279 2.279 0 0 0-2.277 2.276 2.28 2.28 0 0 0 2.277 2.277 2.279 2.279 0 0 0 2.276-2.277 2.279 2.279 0 0 0-2.276-2.276zm0 3.035a.76.76 0 1 1 .001-1.52.76.76 0 0 1-.001 1.52zM38.758 33.568a2.28 2.28 0 0 0 2.276 2.276 2.279 2.279 0 0 0 2.277-2.276 2.279 2.279 0 0 0-2.277-2.276 2.35 2.35 0 0 0-.377.037L36.3 26.245l-1.153.988 4.168 4.861c-.342.399-.556.91-.556 1.474zm3.035 0a.76.76 0 0 1-.758.759.76.76 0 0 1 0-1.518.76.76 0 0 1 .758.759zm-1.45 8.312l.124-1.512c-3.51-.29-6.261-3.276-6.261-6.8 0-1.668.614-3.276 1.73-4.531l-1.133-1.009a8.33 8.33 0 0 0-2.115 5.54c0 4.307 3.362 7.959 7.654 8.312z" fill="#333"/></g></g></svg>