<svg width="90" height="90" viewBox="0 0 90 90" xmlns="http://www.w3.org/2000/svg"><title>icon1.svg</title><g fill="none" fill-rule="evenodd"><circle fill="#FFF" cx="45" cy="45" r="45"/><g fill-rule="nonzero"><path fill="#F9BA48" d="M54.35 20.881H28.142v47.79h33.916v-39.31z"/><path fill="#333" d="M62.058 29.36H54.35v-8.479h-1.542v10.021h9.25zm3.083 7.709H38.7l-5.78 3.854 5.78 3.854h26.441a3.858 3.858 0 0 0 3.855-3.854 3.859 3.859 0 0 0-3.855-3.854zm-26.978 2.21v3.286l-2.464-1.642 2.464-1.644zM63.6 43.235H39.705v-1.542h21.582v-1.541H39.705V38.61H63.6v4.625zm1.541 0V38.61a2.315 2.315 0 0 1 2.313 2.313 2.315 2.315 0 0 1-2.313 2.312zM21.205 60.964h36.999V50.172H21.205v10.792zm1.542-9.25h1.541v2.312h1.542v-2.312h1.542v2.312h1.541v-2.312h1.542v3.854h1.542v-3.854h1.541v2.312h1.542v-2.312h1.542v2.312h1.541v-2.312h1.542v3.854h1.542v-3.854h1.541v2.312h1.542v-2.312h1.542v2.312h1.541v-2.312h1.542v3.854h1.541v-3.854h6.167v7.708H22.747v-7.708z"/><path d="M54.35 53.256a2.315 2.315 0 0 0-2.313 2.312 2.315 2.315 0 0 0 2.313 2.313 2.315 2.315 0 0 0 2.312-2.313 2.315 2.315 0 0 0-2.312-2.312zm0 3.083a.772.772 0 1 1 .001-1.543.772.772 0 0 1-.001 1.543zM31.996 24.735h18.5v1.542h-18.5zm0 3.855h18.5v1.541h-18.5zm0 3.853h18.5v1.542h-18.5z" fill="#333"/></g></g></svg>