<svg width="90" height="90" viewBox="0 0 90 90" xmlns="http://www.w3.org/2000/svg"><title>icon5.svg</title><g fill="none" fill-rule="evenodd"><circle fill="#FFF" cx="45" cy="45" r="45"/><g transform="translate(21.69 21.367)" fill-rule="nonzero"><circle fill="#F9BA48" cx="23.563" cy="20.545" r="10.623"/><path d="M39.324 3.094A41.501 41.501 0 0 1 23.846.114L23.563 0l-.281.113a41.505 41.505 0 0 1-15.479 2.98H6.112v15.935H2.318a2.279 2.279 0 0 0-2.276 2.276v12.899a2.28 2.28 0 0 0 2.276 2.276h6.833a19.699 19.699 0 0 0 7.236 6.814l7.176 3.915 7.177-3.915a19.704 19.704 0 0 0 10.275-17.309V3.094h-1.691zM1.559 34.203v-12.9a.76.76 0 0 1 .759-.758h6.829a.76.76 0 0 1 .758.759v12.899a.76.76 0 0 1-.758.759H2.318a.76.76 0 0 1-.759-.76zm9.864-11.388a4.823 4.823 0 0 0 4.553-4.81v-3.91a1.9 1.9 0 0 1 1.897-1.896 1.9 1.9 0 0 1 1.897 1.897v4.775a2.435 2.435 0 0 0 2.432 2.433h5.563a2.63 2.63 0 0 1 2.627 2.628v8.402a2.63 2.63 0 0 1-2.627 2.628h-11.18c-.602 0-1.16-.3-1.495-.8a3.308 3.308 0 0 0-2.759-1.476h-.908v-9.871zm28.075 3.169a18.189 18.189 0 0 1-9.484 15.977l-6.45 3.518-6.45-3.518a18.198 18.198 0 0 1-6.512-6.023 2.26 2.26 0 0 0 .806-1.586 16.61 16.61 0 0 0 6.432 6.276l5.724 3.122 5.723-3.122a16.67 16.67 0 0 0 8.693-14.643v-11.51h-1.517v11.51a15.153 15.153 0 0 1-7.902 13.31l-4.997 2.726-4.998-2.725a15.102 15.102 0 0 1-5.284-4.809c.212.133.402.302.545.517a3.308 3.308 0 0 0 2.758 1.475h11.18a4.15 4.15 0 0 0 4.145-4.145v-8.402a4.15 4.15 0 0 0-4.145-4.146h-5.563a.916.916 0 0 1-.915-.915v-4.775a3.419 3.419 0 0 0-3.414-3.415 3.419 3.419 0 0 0-3.415 3.415v3.909c0 1.73-1.342 3.137-3.038 3.272a2.261 2.261 0 0 0-.755-1.657V7.559a46.004 46.004 0 0 0 12.898-2.682 46.012 46.012 0 0 0 12.9 2.682v.846h1.517v-2.29l-.724-.033a44.52 44.52 0 0 1-13.43-2.724l-.263-.098-.263.097A44.53 44.53 0 0 1 9.87 6.08l-.723.034v12.913H7.629V4.61h.174a43 43 0 0 0 15.76-2.977 43 43 0 0 0 15.76 2.977h.174v21.373z" fill="#333"/><path fill="#333" d="M36.462 11.44h1.518v1.518h-1.518zM3.077 31.927h5.311v1.518H3.077z"/></g></g></svg>