<svg width="90" height="90" viewBox="0 0 90 90" xmlns="http://www.w3.org/2000/svg"><title>icon4.svg</title><g fill="none" fill-rule="evenodd"><circle fill="#FFF" cx="45" cy="45" r="45"/><g transform="translate(21.529 21.529)" fill-rule="nonzero"><circle fill="#F9BA48" cx="23.522" cy="23.522" r="14.417"/><path d="M23.522 0A23.56 23.56 0 0 0 7.056 6.733l-.999-5.355-1.491.28L5.938 9.01l7.636.848.168-1.507-5.539-.616a22.035 22.035 0 0 1 15.319-6.219c12.133 0 22.004 9.871 22.004 22.005 0 6.622-2.944 12.565-7.588 16.602v-1.427c-.647 0-1.228-.36-1.517-.938l-.312-.623a2.28 2.28 0 0 0 1.83-2.233 2.28 2.28 0 0 0-2.277-2.276h-3.035v7.587h1.518V36.6l.919 1.837a3.19 3.19 0 0 0 2.778 1.77 21.904 21.904 0 0 1-14.32 5.319c-12.133 0-22.004-9.87-22.004-22.004 0-2.242.34-4.463 1.013-6.602l-1.447-.455A23.486 23.486 0 0 0 0 23.522c0 12.97 10.552 23.522 23.522 23.522 12.97 0 23.522-10.552 23.522-23.522C47.044 10.552 36.492 0 23.522 0zm10.623 35.662v-1.517h1.517a.76.76 0 0 1 0 1.517h-1.517z" fill="#333"/><path d="M4.063 13.253l-1.341-.709a23.234 23.234 0 0 0-.762 1.568l1.39.608c.204-.461.436-.94.713-1.467zm13.755 12.351l-9.209 5.525a3.684 3.684 0 0 0-1.78 3.144 3.67 3.67 0 0 0 3.666 3.665h13.027v-1.517H10.495a2.15 2.15 0 0 1-2.148-2.148c0-.75.399-1.456 1.043-1.842l9.21-5.526a10.19 10.19 0 0 0 4.922-8.695c0-4.602-3.745-8.346-8.346-8.346-4.602 0-8.347 3.744-8.347 8.346v1.518h1.518V18.21a6.837 6.837 0 0 1 6.829-6.829 6.837 6.837 0 0 1 6.828 6.83 8.663 8.663 0 0 1-4.186 7.393zM34.05 10.233l-1.327-.738-7.361 13.25a2.57 2.57 0 0 0 2.244 3.813l7.298-.001v4.553h1.517v-4.553h6.829v-1.518h-6.83V9.864h-1.518V25.04h-7.297a1.05 1.05 0 0 1-.917-1.558l7.36-13.248zm-9.01 29.982h1.517V37.18h3.035v3.035h1.518v-7.588h-1.518v3.035h-3.035v-3.035h-1.518z" fill="#333"/></g></g></svg>