<svg width="90" height="90" viewBox="0 0 90 90" xmlns="http://www.w3.org/2000/svg"><title>icon6.svg</title><g fill="none" fill-rule="evenodd"><circle fill="#FFF" cx="45" cy="45" r="45"/><g transform="translate(21.69 21.043)" fill-rule="nonzero"><path d="M36.351 29.29H24.018v-2.67l4.107-2.738c3.708-.134 6.685-3.184 6.685-6.924v-.77h-.771c-3.68 0-6.693 2.883-6.916 6.51l-3.105 2.07V13.104h-1.541v7.81l-3.105-2.07c-.223-3.627-3.235-6.511-6.916-6.511h-.77v.77c0 3.74 2.976 6.79 6.684 6.925l4.107 2.738v6.525H10.144v6.166h2.402l1.542 12.333h18.32l1.54-12.333h2.403v-6.166zm-3.148-11.497a5.407 5.407 0 0 1-4.495 4.496 5.407 5.407 0 0 1 4.495-4.496zM13.292 13.94a5.407 5.407 0 0 1 4.495 4.496 5.407 5.407 0 0 1-4.495-4.496zm17.754 32.31H15.449L14.1 35.457h18.295l-1.35 10.792zm3.764-12.333H11.685v-3.084H34.81v3.084z" fill="#333"/><circle fill="#F9BA48" cx="23.248" cy="6.937" r="6.937"/><path d="M24.018 9.25h-1.541a.772.772 0 0 1-.771-.771h-1.542a2.315 2.315 0 0 0 2.313 2.312v.771h1.541v-.77a2.315 2.315 0 0 0 2.313-2.313 2.315 2.315 0 0 0-2.313-2.313h-1.541a.772.772 0 0 1 0-1.541h1.541c.425 0 .771.345.771.77h1.542a2.315 2.315 0 0 0-2.313-2.312v-.77h-1.541v.77a2.315 2.315 0 0 0-2.313 2.313 2.315 2.315 0 0 0 2.313 2.312h1.541a.772.772 0 0 1 0 1.542z" fill="#333"/><path fill="#F9BA48" d="M46.372 7.708H44.83V6.166h-1.54v1.542h-1.542V9.25h1.542v1.541h1.541V9.25h1.542zm-8.479-.771h1.542V4.625h2.312V3.083h-2.312V.771h-1.542v2.312H35.58v1.542h2.312zm2.312 3.854h-1.541v1.542h-1.542v1.542h1.542v1.541h1.541v-1.541h1.542v-1.542h-1.542zM9.373 4.625H7.83v1.541H6.29v1.542h1.54V9.25h1.542V7.708h1.542V6.166H9.373zM3.977 9.25H2.436v2.312H.123v1.542h2.313v2.312h1.541v-2.312H6.29v-1.542H3.977z"/></g></g></svg>