<svg width="116" height="16" viewBox="0 0 116 16" xmlns="http://www.w3.org/2000/svg"><title>Page 1</title><path d="M11.027 11.5a4.06 4.06 0 0 1-5.538-1.479A4.036 4.036 0 0 1 6.973 4.5a4.06 4.06 0 0 1 5.538 1.48 4.036 4.036 0 0 1-1.484 5.522M12.646 0H5.354a1.71 1.71 0 0 0-1.48.852L.23 7.148a1.7 1.7 0 0 0 0 1.704l3.645 6.296c.306.527.87.852 1.48.852h7.292a1.71 1.71 0 0 0 1.48-.852l3.645-6.296a1.7 1.7 0 0 0 0-1.704L14.126.852A1.71 1.71 0 0 0 12.646 0M27.71 7.88h2.46c1.943 0 3.077-1.04 3.077-2.86 0-1.798-1.124-2.827-3.067-2.827h-2.47V7.88zM30.895 0C33.909 0 36 2.027 36 5.02c0 2.995-2.154 5.022-5.222 5.022h-3.067V15H25V0h5.894zm6.815 10.675c.033 1.211.918 2.025 2.214 2.025 1.49 0 2.3-.855 2.3-2.442V0H45v10.278C45 13.27 43.121 15 39.957 15 36.987 15 35 13.28 35 10.675h2.71zm17-2.795h2.46c1.943 0 3.077-1.04 3.077-2.86 0-1.798-1.124-2.827-3.068-2.827h-2.468V7.88zM57.895 0C60.909 0 63 2.027 63 5.02c0 2.995-2.154 5.022-5.222 5.022h-3.067V15H52V0h5.894zm9.885 9.054h4.365l-2.14-6.403h-.074l-2.15 6.403zm5.015 2.069H67.14L65.831 15H63l5.45-15h3.1L77 15h-2.896l-1.31-3.877zm7.982-3.826h3.132c1.765 0 2.787-.946 2.787-2.567 0-1.58-1.087-2.557-2.841-2.557h-3.078v5.124zm0 7.703H78V0h6.167c3.358 0 5.37 1.798 5.37 4.667 0 1.986-1.076 3.639-2.927 4.283L90 15h-3.164l-3.057-5.644h-3.002V15zm25.878-4.326c.17 1.338 1.582 2.213 3.451 2.213 1.848 0 3.133-.865 3.133-2.072 0-1.046-.786-1.65-2.719-2.083l-1.985-.442c-2.825-.614-4.163-1.902-4.163-3.974 0-2.575 2.368-4.316 5.702-4.316 3.377 0 5.607 1.73 5.671 4.286h-2.612c-.128-1.358-1.328-2.173-3.08-2.173-1.73 0-2.899.805-2.899 2.012 0 .966.775 1.529 2.655 1.951l1.763.383c3.111.674 4.428 1.891 4.428 4.054 0 2.757-2.336 4.487-6.042 4.487-3.526 0-5.841-1.65-5.958-4.326h2.655zM95.628 15V2.266H91V0h12v2.266h-4.618V15z" fill="#FFF" fill-rule="evenodd"/></svg>