<?xml version="1.0" encoding="UTF-8"?>
<svg width="300px" height="130px" viewBox="0 0 300 130" version="1.1" xmlns="http://www.w3.org/2000/svg" xmlns:xlink="http://www.w3.org/1999/xlink">
    <!-- Generator: Sketch 46.2 (44496) - http://www.bohemiancoding.com/sketch -->
    <title>brand1.svg</title>
    <desc>Created with Sketch.</desc>
    <defs>
        <rect id="path-1" x="0" y="0" width="300" height="130"></rect>
    </defs>
    <g id="Page-1" stroke="none" stroke-width="1" fill="none" fill-rule="evenodd">
        <g id="Desktop-HD-Copy" transform="translate(-215.000000, -700.000000)">
            <g id="brand1.svg" transform="translate(215.000000, 700.000000)">
                <g id="Rectangle-4">
                    <use fill="#FFFFFF" fill-rule="evenodd" xlink:href="#path-1"></use>
                    <rect stroke="#DEDEDE" stroke-width="1" x="0.5" y="0.5" width="299" height="129"></rect>
                </g>
                <g id="F_G_Wilson_125204" transform="translate(91.000000, 30.000000)">
                    <path d="M59.4842349,0 C26.6418453,0 0,15.4604089 0,34.5164602 C0,53.5712923 26.6418453,69 59.4842349,69 C92.3581547,69 119,53.5712923 119,34.5164602 C119,15.4604089 92.3581547,0 59.4842349,0 Z M59.5157651,64.1338729 C30.026496,64.1338729 6.10716615,50.8352388 6.10716615,34.4530579 C6.10716615,18.0696577 30.026496,4.80394409 59.5157651,4.80394409 C89.0365645,4.80394409 112.957107,18.0696577 112.957107,34.4530579 C112.957107,50.8352388 89.0365645,64.1338729 59.5157651,64.1338729 L59.5157651,64.1338729 Z" id="Fill-5" fill="#000000"></path>
                    <path d="M59.4835921,0 C39.8864885,0 24,15.4533091 24,34.5006094 C24,53.5466909 39.8864885,69 59.4835921,69 C79.0819111,69 95,53.5466909 95,34.5006094 C95,15.4533091 79.0819111,0 59.4835921,0 Z M59.0715716,64.0081424 C42.7098619,64.0081424 29.4534981,50.7802074 29.4534981,34.4055496 C29.4534981,18.0613597 42.7098619,4.80173799 59.0715716,4.80173799 C75.4028964,4.80173799 88.6580447,18.0613597 88.6580447,34.4055496 C88.6580447,50.7802074 75.4028964,64.0081424 59.0715716,64.0081424 L59.0715716,64.0081424 Z" id="Fill-6" fill="#000000"></path>
                    <polyline id="Fill-7" fill="#000000" points="13.4888412 15 12 21 110 21 106.989529 15 13.4888412 15"></polyline>
                    <polygon id="Fill-8" fill="#000000" points="56 66 62 66 62 2 56 2"></polygon>
                    <polyline id="Fill-9" fill="#000000" points="10 47 11.8254463 53 105.034209 53 109 47 10 47"></polyline>
                    <polygon id="Fill-10" fill="#FFFFFF" points="17 43 99 43 99 24 17 24"></polygon>
                    <path d="M10,28 L19,28 L19,31.2779201 L18.6101955,31.2779201 C18.280184,29.5937433 17.8294366,28.5508221 15.099655,28.5508221 C14.2591031,28.5508221 13.960138,28.6436045 13.960138,29.317745 L13.960138,33.0865898 C15.9390571,33.1171258 16.1793791,31.9837711 16.3898045,30.6660261 L16.779609,30.6660261 L16.779609,36.1507581 L16.3898045,36.1507581 C16.2092756,34.833013 15.9701035,33.6374119 13.960138,33.6374119 L13.960138,37.4379671 C13.960138,38.5102498 14.5891146,38.5407858 15.699885,38.5713218 L15.699885,39 L10,39 L10,38.5713218 C10.8991951,38.4797139 11.379839,38.4491779 11.379839,37.4379671 L11.379839,29.5632073 C11.379839,28.4897502 10.719816,28.4592142 10,28.4286782 L10,28" id="Fill-11" fill="#000000"></path>
                    <path d="M35,35.2578284 C33.9590478,35.352989 33.5475086,35.4164294 33.5475086,36.8169988 L33.5475086,38.949573 C32.7583216,39.5229768 30.4839621,40 29.0314706,40 C24.8628203,40 23,37.0085401 23,34.0793005 C23,30.7376983 25.3058301,28 28.9055881,28 C30.4210208,28 31.716159,28.8271655 32.1264878,28.8271655 C32.6009683,28.8271655 32.7268509,28.4770232 32.9156748,28.0634404 L33.3586847,28.0634404 L33.3586847,32.0101667 L32.9471455,32.0101667 C32.3479927,30.546157 30.9584426,28.5734038 29.0314706,28.5734038 C26.6312286,28.5734038 25.9364535,31.1195608 25.9364535,34.0475803 C25.9364535,35.2261082 26.0320759,39.4278162 29.2215049,39.4278162 C30.6739964,39.4278162 30.9584426,38.9178528 30.9584426,38.1858479 L30.9584426,36.4351362 C30.9584426,35.352989 30.4210208,35.3212688 29.2529756,35.2578284 L29.2529756,34.8113054 L35,34.8113054 L35,35.2578284" id="Fill-12" fill="#000000"></path>
                    <path d="M55,28.4574413 C54.4349398,28.4900261 54.0566265,28.9148825 53.8686747,29.5690862 L50.5361446,40 L50.0963855,40 L47.2987952,31.8901305 L47.173494,31.8901305 L44.1240964,40 L43.6831325,40 L40.1313253,29.5690862 C39.8481928,28.7193734 39.6915663,28.5551958 39,28.4574413 L39,28 L43.8722892,28 L43.8722892,28.4574413 C43.2746988,28.4900261 42.8349398,28.522611 42.8349398,29.1768146 C42.8349398,29.373577 42.8662651,29.5690862 42.9289157,29.7332637 L44.9096386,36.0108616 L44.9409639,36.0108616 L46.8903614,30.7133159 L46.3240964,29.0464752 C46.1036145,28.6867885 45.9156627,28.4900261 45.1301205,28.4574413 L45.1301205,28 L50.3168675,28 L50.3168675,28.4574413 C49.5939759,28.4900261 49.1216867,28.522611 49.1216867,29.1116449 C49.1216867,29.307154 49.2481928,29.7332637 49.3421687,30.0591123 L51.1337349,35.8153525 L51.1650602,35.8153525 L53.0204819,29.9287728 C53.0518072,29.7658486 53.1457831,29.5690862 53.1457831,29.2093995 C53.1457831,28.4900261 52.5481928,28.4900261 51.9819277,28.4574413 L51.9819277,28 L55,28 L55,28.4574413" id="Fill-13" fill="#000000"></path>
                    <path d="M62,39 L56,39 L56,38.5713218 C56.9086389,38.5102498 57.5885643,38.4491779 57.5885643,37.4379671 L57.5885643,29.5632073 C57.5885643,28.4897502 56.7781231,28.4592142 56,28.4286782 L56,28 L62,28 L62,28.4286782 C61.1895587,28.4592142 60.3778745,28.4592142 60.3778745,29.5632073 L60.3778745,37.4379671 C60.3778745,38.4797139 61.0590429,38.5102498 62,38.5713218 L62,39" id="Fill-14" fill="#000000"></path>
                    <path d="M73.3292825,39 L64,39 L64,38.5713218 C64.883384,38.4797139 65.3718158,38.4186419 65.3718158,37.4379671 L65.3718158,29.5632073 C65.3718158,28.4897502 64.7314793,28.4592142 64,28.4286782 L64,28 L69.6403365,28 L69.6403365,28.4286782 C68.5115681,28.4592142 67.9939238,28.4897502 67.9939238,29.8991031 L67.9939238,37.560111 C67.9939238,38.3575699 68.3596635,38.4797139 69.4265015,38.4797139 C71.8651554,38.4797139 72.7800888,37.1314328 73.5115681,35.2922272 L74,35.2922272 L73.3292825,39" id="Fill-15" fill="#000000"></path>
                    <path d="M82.0233892,31.6600244 C81.7397012,30.4827166 80.7317036,28.5416836 78.778482,28.5416836 C77.8972386,28.5416836 76.9834012,29.050427 76.9834012,30.1325742 C76.9834012,31.0561204 77.2984759,31.4062627 78.6843217,32.1382676 L81.1409386,33.3472956 C81.7083145,33.6339976 83,34.6209841 83,36.4668564 C83,37.9625864 81.9280217,40 78.8424627,40 C77.2670892,40 76.5113928,39.4278162 76.0067904,39.4278162 C75.6289422,39.4278162 75.5661687,39.7145181 75.5033952,40 L75,40 L75,35.8300122 L75.5033952,35.8300122 C75.8184699,37.5172834 76.7950807,39.4278162 78.9052362,39.4278162 C80.9212313,39.4278162 81.0153916,37.7722651 81.0153916,37.5490037 C81.0153916,36.403416 80.2283084,36.0215535 79.1249434,35.4798699 L78.0227856,34.9394063 C75.1569338,33.5705571 75.1569338,32.1065474 75.1569338,31.3428223 C75.1569338,30.3241155 75.6929229,28 78.8424627,28 C80.1969217,28 80.9840048,28.5734038 81.4560133,28.5734038 C81.8338615,28.5734038 81.9280217,28.3184221 81.9920024,28 L82.4953976,28 L82.4953976,31.6600244 L82.0233892,31.6600244" id="Fill-16" fill="#000000"></path>
                    <path d="M97,34.0158601 C97,37.5490037 94.4712315,40 90.983444,40 C87.5287685,40 85,37.5490037 85,34.0158601 C85,30.3241155 87.7200818,28 90.983444,28 C94.2799182,28 97,30.3241155 97,34.0158601 Z M88.008278,34.0158601 C88.008278,35.4798699 88.1039346,39.4278162 90.983444,39.4278162 C93.894839,39.4278162 93.991722,35.4798699 93.991722,34.0158601 C93.991722,31.5331436 93.383444,28.5734038 90.983444,28.5734038 C88.616556,28.5734038 88.008278,31.5331436 88.008278,34.0158601 L88.008278,34.0158601 Z" id="Fill-17" fill="#000000"></path>
                    <path d="M97,39.2500781 C97.9698026,39.1525883 98.4239257,39.0226018 98.4239257,37.8802208 L98.4239257,29.6960733 C97.514518,28.4886991 97.242741,28.4562025 97.0603949,28.4562025 L97.0603949,28 L100.423926,28 L106,35.401729 L106.030197,35.401729 L106.030197,30.1522758 C106.030197,29.1086345 105.847851,28.5536923 104.544715,28.4562025 L104.544715,28 L108,28 L108,28.4562025 C106.849013,28.5861889 106.757259,29.0111447 106.757259,29.8260598 L106.757259,40 L106.303136,40 L99.1509872,30.6409749 L99.1207898,30.6409749 L99.1207898,37.5540048 C99.1207898,38.7938756 99.4541231,39.1200917 100.636469,39.2500781 L100.636469,39.7062806 L97,39.7062806 L97,39.2500781" id="Fill-18" fill="#000000"></path>
                </g>
            </g>
        </g>
    </g>
</svg>