<?xml version="1.0" encoding="UTF-8"?>
<svg width="300px" height="130px" viewBox="0 0 300 130" version="1.1" xmlns="http://www.w3.org/2000/svg" xmlns:xlink="http://www.w3.org/1999/xlink">
    <!-- Generator: Sketch 46.2 (44496) - http://www.bohemiancoding.com/sketch -->
    <title>brand7</title>
    <desc>Created with Sketch.</desc>
    <defs>
        <rect id="path-1" x="0" y="0" width="300" height="130"></rect>
    </defs>
    <g id="Page-1" stroke="none" stroke-width="1" fill="none" fill-rule="evenodd">
        <g id="Desktop-HD-Copy" transform="translate(-565.000000, -1060.000000)">
            <g id="brand7" transform="translate(565.000000, 1060.000000)">
                <g id="Rectangle-4">
                    <use fill="#FFFFFF" fill-rule="evenodd" xlink:href="#path-1"></use>
                    <rect stroke="#DEDEDE" stroke-width="1" x="0.5" y="0.5" width="299" height="129"></rect>
                </g>
                <g id="perkins-vector-logo" transform="translate(57.000000, 47.000000)" fill="#004A86">
                    <path d="M21.7292664,27.8053945 C21.6607008,27.4655911 21.6264179,27.1207462 21.6264179,26.7759012 C21.6264179,25.4580287 22.1255357,24.1411646 23.1217545,23.1449458 C24.1189816,22.1467104 25.4358457,21.648601 26.7537182,21.648601 C27.0985631,21.648601 27.4434081,21.6818755 27.7822032,21.7514495 L21.7292664,27.8053945 Z M30.6125536,23.3869423 C31.4585329,24.3498866 31.8810184,25.5618856 31.8810184,26.7759012 C31.8810184,28.0937736 31.382909,29.4096294 30.3846736,30.4078649 L30.3887068,30.4108898 C29.3934963,31.4000504 28.0746156,31.8941265 26.7537182,31.8941265 C25.5366776,31.8941265 24.3236703,31.4756743 23.3627426,30.6367532 L30.6125536,23.3869423 Z M27.8013612,14.2667003 C27.4565163,14.3382909 27.1046131,14.3725737 26.7537182,14.3725737 C25.4358457,14.3725737 24.1189816,13.8744643 23.1217545,12.8772372 L23.1187295,12.8802622 C22.1245274,11.8790018 21.6264179,10.5611293 21.6264179,9.24124023 C21.6264179,8.89135367 21.6617091,8.5414671 21.7322914,8.19763045 L27.8013612,14.2667003 Z M23.3728258,5.37332997 C24.3327451,4.53138392 25.5417192,4.10990673 26.7537182,4.10990673 C28.0736073,4.10990673 29.3914797,4.60902445 30.3846736,5.60826821 L30.3846736,5.61431812 C31.382909,6.61154525 31.8810184,7.92538442 31.8810184,9.24124023 C31.8810184,10.4522309 31.4625662,11.6612049 30.6256617,12.6251575 L23.3728258,5.37332997 Z M12.8721956,12.8772372 L12.8661457,12.8832871 C12.8681623,12.8812705 12.870179,12.8792538 12.8721956,12.8772372 C12.870179,12.8792538 12.8681623,12.8812705 12.8661457,12.8832871 C11.8658936,13.876481 10.5490295,14.3725737 9.23014873,14.3725737 C8.88328712,14.3725737 8.53642551,14.3382909 8.19561381,14.2697252 L14.2586337,8.20670532 C14.3271994,8.54751702 14.3614822,8.89437862 14.3614822,9.24124023 C14.3614822,10.560121 13.8653895,11.8769851 12.8721956,12.8772372 Z M5.37030502,12.6291908 C4.52331737,11.6622133 4.09881523,10.4512226 4.09881523,9.24124023 C4.09881523,7.92235947 4.59793295,6.60852029 5.59717671,5.61431812 L5.60322662,5.60826821 C6.59742879,4.60902445 7.91126796,4.10990673 9.23014873,4.10990673 C10.4401311,4.10990673 11.6511218,4.53440887 12.6180993,5.38139652 L5.37030502,12.6291908 Z M8.21477187,21.7494328 C8.54953365,21.6818755 8.89034535,21.648601 9.23014873,21.648601 C10.5500378,21.648601 11.8689186,22.145702 12.8691707,23.1409125 L12.8661457,23.1449458 C13.8633728,24.1411646 14.3614822,25.4580287 14.3614822,26.7759012 C14.3614822,27.1177212 14.329216,27.4595412 14.2616587,27.7953113 L8.21477187,21.7494328 Z M4.46483489,17.9994958 L5.71212503,16.753214 C6.82329216,17.2714898 8.02621628,17.5306277 9.23014873,17.5306277 C11.3486262,17.5306277 13.4721452,16.7239728 15.0925132,15.1096547 L15.0995715,15.1046131 C16.7128813,13.4832367 17.5205445,11.3597177 17.5205445,9.24124023 C17.5205445,8.03730779 17.2603983,6.83438367 16.7421225,5.72321654 L17.9994958,4.46584321 L19.2498109,5.71514999 C18.7295185,6.82833375 18.468364,8.03529115 18.468364,9.24124023 C18.468364,11.3597177 19.2750189,13.4832367 20.889337,15.1046131 L20.889337,15.1096547 C22.5036552,16.7239728 24.6291908,17.5306277 26.7537182,17.5306277 C27.9616839,17.5306277 29.1696496,17.2704815 30.2838417,16.7491807 L31.5341568,17.9994958 L30.2677086,19.265944 C29.1585581,18.7486766 27.955634,18.490547 26.7537182,18.490547 C24.6291908,18.490547 22.5036552,19.2972019 20.889337,20.91152 C19.2750189,22.5248298 18.468364,24.6513738 18.468364,26.7759012 C18.468364,27.977817 18.7264936,29.1797328 19.243761,30.2898916 L17.9994958,31.5341568 L16.7491807,30.2828334 C17.2624149,29.1746912 17.5205445,27.9758004 17.5205445,26.7759012 C17.5205445,24.6513738 16.7128813,22.5248298 15.0995715,20.91152 L15.0925132,20.91152 C13.4721452,19.2972019 11.3486262,18.490547 9.23014873,18.490547 C8.0322662,18.490547 6.83438367,18.7476683 5.72724981,19.2619108 L4.46483489,17.9994958 Z M12.6322158,30.6307033 C11.6662465,31.4736577 10.4492059,31.8941265 9.23014873,31.8941265 C7.90925132,31.8941265 6.59238719,31.3990421 5.59717671,30.4078649 C4.59793295,29.4126544 4.09881523,28.0967986 4.09881523,26.7759012 C4.09881523,25.5558356 4.52533401,24.3398034 5.37736325,23.3768591 L12.6322158,30.6307033 Z M3.37685909,3.38190068 L3.36980086,3.38795059 C3.37181749,3.38492564 3.37383413,3.382909 3.37685909,3.38190068 C3.37383413,3.382909 3.37181749,3.38492564 3.36980086,3.38795059 C1.75044114,5.00327704 0.940761281,7.12276279 0.940761281,9.24124023 C0.940761281,11.2598941 1.6728006,13.2795563 3.13486262,14.8646332 L0,17.9994958 L3.14797076,21.1474666 C1.67683388,22.7325435 0.940761281,24.7552307 0.940761281,26.7759012 C0.940761281,28.8984119 1.75245778,31.0229392 3.37685909,32.6402823 C4.99218553,34.2485505 7.11167129,35.0521805 9.23014873,35.0521805 C11.2488026,35.0521805 13.2714898,34.3221578 14.8616083,32.8611041 L17.9994958,36 L21.1323418,32.867154 C22.7154021,34.3241744 24.7360726,35.0521805 26.7537182,35.0521805 C28.8732039,35.0521805 30.996723,34.2485505 32.6120494,32.6402823 L32.6180993,32.6402823 C34.2314091,31.0259642 35.0390723,28.9004285 35.0390723,26.7759012 C35.0390723,24.7542223 34.3090497,22.7325435 32.847996,21.1514999 L36,17.9994958 L32.8560625,14.8555584 C34.3110663,13.2694732 35.0390723,11.2538442 35.0390723,9.24124023 C35.0390723,7.11872952 34.2314091,4.99521049 32.6180993,3.38190068 L32.6150744,3.38492564 C30.9987396,1.76354928 28.8742123,0.951852785 26.7537182,0.951852785 C24.7411142,0.951852785 22.7254853,1.68288379 21.1434333,3.14393748 L17.9994958,0 L14.8535417,3.14595412 C13.2684648,1.68389211 11.2477943,0.951852785 9.23014873,0.951852785 C7.11267961,0.951852785 4.99218553,1.76254096 3.37685909,3.38190068 L3.37685909,3.38190068 Z" id="Fill-72"></path>
                    <path d="M165.850984,26.0009971 C166.116411,32.0256762 171.281719,34 176.579239,34 C181.788618,34 187,32.06955 187,26.0887449 C187,21.8738626 183.418239,20.5496697 179.761357,19.7100835 C176.179597,18.8824629 172.644911,18.5743487 172.644911,16.3337904 C172.644911,14.4801197 174.728262,14.2148822 176.136527,14.2148822 C178.386146,14.2148822 180.249142,14.8769787 180.426427,17.2940297 L186.378,17.2940297 C185.902234,11.7100835 181.301835,10.0438739 176.312811,10.0438739 C171.413931,10.0438739 166.38284,11.5335909 166.38284,17.3379035 C166.38284,21.3443849 169.99565,22.6127384 173.619479,23.4074536 C178.120719,24.3786613 180.723906,25.0287922 180.723906,26.9273339 C180.723906,29.1230213 178.431218,29.8289916 176.624312,29.8289916 C174.151334,29.8289916 171.858647,28.7261623 171.813574,26.0009971 L165.850984,26.0009971 Z M142.428311,33.3827745 L148.692386,33.3827745 L148.692386,21.4770036 C148.692386,16.8522996 150.153737,14.9657235 153.557211,14.9657235 C156.471899,14.9657235 157.569664,16.8084258 157.569664,20.5496697 L157.569664,33.3827745 L163.843756,33.3827745 L163.843756,19.4009722 C163.843756,13.7851178 162.171065,10.0438739 155.498333,10.0438739 C152.847069,10.0438739 150.110668,11.2693506 148.5141,13.8180232 L148.380885,13.8180232 L148.380885,10.6620965 L142.428311,10.6620965 L142.428311,33.3827745 Z M133.30664,7.14221613 L139.57973,7.14221613 L139.57973,2 L133.30664,2 L133.30664,7.14221613 Z M133.30664,33.3827745 L139.57973,33.3827745 L139.57973,10.6620965 L133.30664,10.6620965 L133.30664,33.3827745 Z M109.142775,33.3827745 L115.404847,33.3827745 L115.404847,25.55827 L117.84377,23.2299639 L124.105842,33.3827745 L131.710072,33.3827745 L122.122652,19.0160788 L130.735505,10.6620965 L123.319577,10.6620965 L115.404847,18.8385891 L115.404847,2 L109.142775,2 L109.142775,33.3827745 Z M93.4916019,33.3827745 L99.7656931,33.3827745 L99.7656931,23.1432133 C99.7656931,19.1477004 101.350242,15.8481865 105.939623,15.8481865 C106.692835,15.8481865 107.624333,15.9369313 108.199258,16.06955 L108.199258,10.2642403 C107.800616,10.1326187 107.267759,10.0438739 106.826049,10.0438739 C103.778147,10.0438739 100.685172,12.0191948 99.5433354,14.8769787 L99.4551937,14.8769787 L99.4551937,10.6620965 L93.4916019,10.6620965 L93.4916019,33.3827745 Z M74.96881,19.5784619 C75.0579534,17.8245045 76.1997899,14.7453571 80.1791903,14.7453571 C83.2270925,14.7453571 84.5902851,16.4225352 85.167213,19.5784619 L74.96881,19.5784619 Z M91.4413042,23.5400723 C91.8840162,16.5551539 88.1269735,10.0438739 80.3564755,10.0438739 C73.4183162,10.0438739 68.6957204,15.2299639 68.6957204,22.0503552 C68.6957204,29.0791475 73.1629054,34 80.3564755,34 C85.5217833,34 89.2798277,31.7165649 91.0416614,26.3529852 L85.5217833,26.3529852 C85.1231421,27.765923 83.0938783,29.2995139 80.5778315,29.2995139 C77.0862156,29.2995139 75.1470967,27.5016827 74.96881,23.5400723 L91.4413042,23.5400723 Z M50.9271416,7.36258258 L56.3138054,7.36258258 C59.5399944,7.36258258 62.4106115,8.06855291 62.4106115,12.0630687 C62.4106115,16.06955 59.5399944,16.7635548 56.3138054,16.7635548 L50.9271416,16.7635548 L50.9271416,7.36258258 Z M44,33.3827745 L50.9271416,33.3827745 L50.9271416,22.1391001 L58.209855,22.1391001 C66.0795125,22.1391001 69.1274147,17.1614109 69.1274147,12.0630687 C69.1274147,6.96572354 66.0795125,2 58.209855,2 L44,2 L44,33.3827745 L44,33.3827745 Z" id="Fill-73"></path>
                </g>
            </g>
        </g>
    </g>
</svg>