<?xml version="1.0" encoding="UTF-8"?>
<svg width="300px" height="130px" viewBox="0 0 300 130" version="1.1" xmlns="http://www.w3.org/2000/svg" xmlns:xlink="http://www.w3.org/1999/xlink">
    <!-- Generator: Sketch 46.2 (44496) - http://www.bohemiancoding.com/sketch -->
    <title>brand4</title>
    <desc>Created with Sketch.</desc>
    <defs>
        <rect id="path-1" x="0" y="0" width="300" height="130"></rect>
    </defs>
    <g id="Page-1" stroke="none" stroke-width="1" fill="none" fill-rule="evenodd">
        <g id="Desktop-HD-Copy" transform="translate(-215.000000, -880.000000)">
            <g id="brand4" transform="translate(215.000000, 880.000000)">
                <g id="Rectangle-4">
                    <use fill="#FFFFFF" fill-rule="evenodd" xlink:href="#path-1"></use>
                    <rect stroke="#DEDEDE" stroke-width="1" x="0.5" y="0.5" width="299" height="129"></rect>
                </g>
                <g id="sdmo" transform="translate(71.000000, 39.000000)" fill-rule="nonzero">
                    <g id="g10" transform="translate(79.500000, 26.000000) scale(-1, 1) rotate(-180.000000) translate(-79.500000, -26.000000) ">
                        <g id="g12" transform="translate(0.001620, 0.082404)" fill="#176CAD">
                            <polygon id="path14" points="50.0683359 50.8811176 26.5815179 50.8811176 0.0257494299 0.310992999 23.5130442 0.310992999"></polygon>
                        </g>
                        <g id="g16" transform="translate(25.891670, 0.082404)" fill="#176CAD">
                            <polygon id="path18" points="40.53151 50.8811176 27.3969166 50.8811176 0.241281695 0.310992999 13.3758751 0.310992999"></polygon>
                        </g>
                        <polygon id="path20" fill="#231F20" points="50.0697647 9.22089081 16.9130822 9.22089081 16.9130822 42.2855333 50.0697647 42.2855333"></polygon>
                        <g id="g22" transform="translate(21.100228, 9.272727)">
                            <g id="g24-Clipped" transform="translate(0.000000, 0.000000)">
                                <g id="g24" transform="translate(-0.000002, 0.237758)">
                                    <g id="g30" transform="translate(0.143195, 22.041082)" fill="#FFFFFF">
                                        <path d="M0,0 C0,0 2.98931807,6.22271313 6.3891965,6.22271313 L23.8387268,6.22271313 L23.8387268,0 L0,0 Z" id="path32"></path>
                                    </g>
                                    <g id="g34" transform="translate(0.139714, 2.892615)" fill="#FFFFFF">
                                        <path d="M23.8420647,6.65734249 C23.8420647,6.65734249 20.8527466,0.434153835 17.4523914,0.434153835 L0.00286104776,0.434153835 L0.00286104776,6.65734249 L23.8420647,6.65734249 Z" id="path36"></path>
                                    </g>
                                    <g id="g38" transform="translate(0.131561, 12.260067)" fill="#FFFFFF">
                                        <path d="M0,6.65734249 C0,6.65734249 3.16431883,0.398489501 7.05486695,0.398489501 L23.7981953,0.398489501 C23.7981953,0.398489501 20.2257003,6.72534249 16.0566769,6.72534249 C11.8886071,6.72534249 0,6.65734249 0,6.65734249" id="path40"></path>
                                    </g>
                                    <g id="g42" transform="translate(39.433488, 0.011127)" fill="#000000">
                                        <path d="M0.953682588,7.13286695 C2.24115408,6.41910473 4.43557772,5.89650335 6.24805148,5.89650335 C9.2044675,5.89650335 10.6354682,7.41818163 10.6354682,9.5109648 C10.6354682,11.8419857 9.2044675,12.98372 6.48647212,14.743636 C2.09857854,17.406573 0.429157165,20.7837477 0.429157165,23.6849225 C0.429157165,28.8220133 3.86336816,33.10316 10.5877841,33.10316 C12.6863626,33.10316 14.6895729,32.5315796 15.6437323,31.9609502 L14.6418888,26.5860972 C13.7354135,27.1572021 12.3525737,27.6798035 10.5401,27.6798035 C7.86931188,27.6798035 6.58136354,26.0639714 6.58136354,24.3511323 C6.58136354,22.4485589 7.53552297,21.449482 11.0169413,19.3571743 C15.2617825,16.7883912 16.8358356,13.5533983 16.8358356,10.176699 C16.8358356,4.32679709 12.4956261,0.475048939 6.19989051,0.475048939 C3.62494752,0.475048939 1.09673498,1.13983214 0.0472072881,1.75896499 L0.953682588,7.13286695 Z" id="path44"></path>
                                    </g>
                                    <g id="g46" transform="translate(58.561595, 0.487127)" fill="#000000">
                                        <path d="M6.67577812,5.2307691 C6.96188289,5.13566421 7.43872419,5.13566421 7.77298993,5.13566421 C10.7775669,5.13566421 13.4006709,8.08486693 13.4006709,16.930573 C13.4006709,23.4951882 11.6840422,27.4895937 7.91556548,27.4895937 C7.48688516,27.4895937 7.05677431,27.4895937 6.67577812,27.3474119 L6.67577812,5.2307691 Z M0.427726641,31.8658454 C2.00130291,32.2457894 4.29109481,32.4840272 6.77114638,32.4840272 C10.8252511,32.4840272 13.6395684,31.5325027 15.6899859,29.6304049 C18.4561423,27.1562511 19.887143,22.9236078 19.887143,16.6932863 C19.887143,10.224727 18.2172448,5.61071315 15.4038812,3.13798594 C13.2571417,1.04520277 10.0618281,0.0466013974 5.57904314,0.0466013974 C3.62351699,0.0466013974 1.66799085,0.236335658 0.427726641,0.378992998 L0.427726641,31.8658454 Z" id="path48"></path>
                                    </g>
                                    <g id="g50" transform="translate(80.172185, 0.583278)" fill="#000000">
                                        <path d="M20.9810169,11.4125871 C20.8379646,14.4564192 20.6000207,18.5473562 20.6949122,22.0186848 L20.5518598,22.0186848 C19.9791734,18.5949086 19.1208591,14.646629 18.5009654,12.1739018 L15.734809,0.710433549 L11.2987545,0.710433549 L8.62844322,11.982741 C8.00807269,14.5519996 7.14975836,18.5473562 6.67291707,22.0186848 L6.52986468,22.0186848 C6.43449642,18.5473562 6.2437599,14.5039717 6.0520697,11.3174822 L5.52849796,0.188307688 L0.138760817,0.188307688 L2.47576,32.2448384 L9.05712354,32.2448384 L11.6330202,20.6396638 C12.5394955,16.5972304 13.3496489,13.0298458 13.9218584,9.41490886 L14.0172267,9.41490886 C14.4950217,12.9813423 15.2093299,16.5972304 16.0681211,20.6396638 L18.5968105,32.2448384 L25.178174,32.2448384 L27.1332233,0.188307688 L21.5532265,0.188307688 L20.9810169,11.4125871 Z" id="path52"></path>
                                    </g>
                                    <g id="g54" transform="translate(109.216684, 0.156257)" fill="#000000">
                                        <path d="M6.67577812,16.6433562 C6.67577812,9.36592984 8.05957155,5.65636349 10.5868304,5.65636349 C13.2104112,5.65636349 14.2122548,10.4130347 14.2122548,16.9291464 C14.2122548,22.5408106 13.3534636,27.6298734 10.5396231,27.6298734 C8.05957155,27.6298734 6.67577812,23.539412 6.67577812,16.6433562 M20.7459342,17.2139856 C20.7459342,5.13281106 16.4538857,0.233958036 10.3488866,0.233958036 C3.05178428,0.233958036 0.189782835,7.93935644 0.189782835,16.7389366 C0.189782835,25.4900133 3.67072428,33.0527544 10.7775669,33.0527544 C18.5519874,33.0527544 20.7459342,24.5384889 20.7459342,17.2139856" id="path56"></path>
                                    </g>
                                    <g id="g58" transform="translate(129.316641, 27.935208)" fill="#231F20">
                                        <path d="M2.86104776,3.32867125 L3.10423682,3.32867125 C3.40464684,3.32867125 3.61064228,3.45944047 3.61064228,3.66486704 C3.61064228,3.88979011 3.44136362,4.02055934 3.14190729,4.02055934 C3.02937274,4.02055934 2.91588451,4.00153836 2.86104776,3.98251738 L2.86104776,3.32867125 Z M2.8233773,1.75848947 L2.05566282,1.75848947 L2.05566282,4.50654534 C2.22351095,4.54316073 2.63550183,4.61829359 3.17862407,4.61829359 C3.74034311,4.61829359 4.00308266,4.52461527 4.21050863,4.39432157 C4.3788336,4.28257332 4.49184499,4.05812577 4.49184499,3.77661529 C4.49184499,3.51507684 4.24722541,3.25448943 3.87147447,3.16033559 L3.87147447,3.12324468 C4.17236132,3.02956636 4.34163998,2.80464329 4.43510088,2.41281113 C4.50996496,2.02002792 4.56623223,1.85121674 4.60437954,1.75848947 L3.76084729,1.75848947 C3.66690955,1.87071324 3.61064228,2.09468526 3.55389816,2.33767826 C3.51765823,2.61776217 3.36697638,2.76850343 3.10423682,2.76850343 L2.8233773,2.76850343 L2.8233773,1.75848947 Z M3.17862407,5.44047539 C1.97889137,5.44047539 1.08004553,4.43141248 1.08004553,3.16033559 C1.08004553,1.90780415 1.97889137,0.916811166 3.19674404,0.916811166 C4.41650407,0.898741236 5.31534991,1.90780415 5.31534991,3.17888104 C5.31534991,4.43141248 4.41650407,5.44047539 3.19674404,5.44047539 L3.17862407,5.44047539 Z M3.21677137,6.16992992 C4.88476222,6.16992992 6.19798314,4.82467121 6.19798314,3.17888104 C6.19798314,1.51502094 4.88476222,0.169286709 3.19674404,0.169286709 C1.53018371,0.169286709 0.199319661,1.51502094 0.199319661,3.17888104 C0.199319661,4.82467121 1.53018371,6.16992992 3.19674404,6.16992992 L3.21677137,6.16992992 Z" id="path60"></path>
                                    </g>
                                </g>
                            </g>
                        </g>
                    </g>
                </g>
            </g>
        </g>
    </g>
</svg>