<?xml version="1.0" encoding="UTF-8"?>
<svg width="300px" height="130px" viewBox="0 0 300 130" version="1.1" xmlns="http://www.w3.org/2000/svg" xmlns:xlink="http://www.w3.org/1999/xlink">
    <!-- Generator: Sketch 46.2 (44496) - http://www.bohemiancoding.com/sketch -->
    <title>brand2.svg</title>
    <desc>Created with Sketch.</desc>
    <defs>
        <rect id="path-1" x="0" y="0" width="300" height="130"></rect>
    </defs>
    <g id="Page-1" stroke="none" stroke-width="1" fill="none" fill-rule="evenodd">
        <g id="Desktop-HD-Copy" transform="translate(-565.000000, -700.000000)">
            <g id="brand2.svg" transform="translate(565.000000, 700.000000)">
                <g id="Rectangle-4">
                    <use fill="#FFFFFF" fill-rule="evenodd" xlink:href="#path-1"></use>
                    <rect stroke="#DEDEDE" stroke-width="1" x="0.5" y="0.5" width="299" height="129"></rect>
                </g>
                <g id="john_deere" transform="translate(61.000000, 47.000000)">
                    <path d="M36.941,4.272 C31.921,1.862 26.197,0.506 20.222,0.506 C14.247,0.506 8.523,1.862 3.502,4.322 C1.744,8.54 0.791,13.21 0.791,18.03 C0.791,22.9 1.744,27.52 3.502,31.788 C8.523,34.198 14.247,35.604 20.222,35.604 C26.197,35.604 31.921,34.198 36.941,31.788 C38.699,27.57 39.703,22.9 39.703,18.03 C39.703,13.21 38.699,8.54 36.941,4.272" id="Fill-2" fill="#080908"></path>
                    <path d="M35.737,5.326 C31.067,3.168 25.745,1.912 20.222,1.912 C14.699,1.912 9.376,3.168 4.707,5.326 C3.15,9.293 2.297,13.561 2.297,18.03 C2.297,22.499 3.15,26.816 4.707,30.733 C9.376,32.942 14.699,34.147 20.222,34.147 C25.745,34.147 31.117,32.942 35.737,30.733 C37.343,26.816 38.197,22.549 38.197,18.03 C38.197,13.561 37.293,9.293 35.737,5.326" id="Fill-3" fill="#FFFFFE"></path>
                    <path d="M14.799,13.963 C13.996,15.62 13.444,17.428 13.192,19.486 C13.142,19.486 12.74,19.536 12.74,19.536 C10.983,19.688 9.226,19.838 7.519,20.49 L7.619,21.143 C10.431,24.607 14.699,26.716 14.699,26.716 L13.895,25.16 C13.694,25.009 13.092,24.859 13.092,24.859 C11.184,24.256 9.828,21.746 9.627,21.344 C11.184,21.344 12.59,21.796 13.895,22.248 C14.799,22.499 15.653,22.8 16.506,22.9 C18.013,23.152 19.569,22.9 21.025,22.699 C22.18,22.549 23.285,22.549 24.389,22.65 C24.54,22.8 25.695,24.206 26.85,24.808 C28.256,25.511 32.323,26.767 32.523,26.816 C32.624,26.867 34.18,28.474 35.185,30.282 C30.565,32.39 25.393,33.495 20.222,33.495 C15.05,33.495 9.878,32.39 5.259,30.282 C3.753,26.365 2.949,22.248 2.949,18.03 C2.949,13.862 3.753,9.745 5.259,5.829 C9.878,3.72 15.05,2.616 20.222,2.616 C25.444,2.616 30.615,3.72 35.185,5.829 C36.691,9.745 37.494,13.862 37.494,18.03 C37.494,21.896 36.841,25.662 35.586,29.227 C34.13,26.716 33.528,25.963 33.528,25.963 C33.477,25.963 31.469,24.909 30.967,24.457 C30.565,24.106 30.364,23.402 30.113,22.599 C29.812,21.444 29.41,20.039 28.306,18.884 L29.561,18.381 C29.209,16.022 26.398,14.515 26.348,14.515 L26.297,14.565 C27.402,15.921 27.602,17.026 27.602,17.729 C27.602,18.08 27.552,18.331 27.502,18.432 C27.201,18.281 25.142,17.628 20.372,17.829 C19.72,17.829 18.716,17.779 18.113,17.227 C17.761,16.926 17.61,16.422 17.61,15.871 C17.61,14.214 18.314,12.005 18.414,11.703 L19.619,11.854 C21.126,11.051 21.678,10.297 21.728,10.197 C20.472,10.348 18.816,10.649 18.816,10.649 C18.916,10.398 19.218,9.444 19.218,8.389 C19.218,7.235 18.866,5.98 17.41,5.226 L17.31,5.277 C17.36,5.326 18.163,6.23 18.163,7.435 C18.163,7.787 18.113,8.189 17.962,8.54 C17.46,8.389 17.159,8.339 16.607,8.339 C16.305,7.335 15.452,6.532 14.297,6.13 L14.247,6.181 C14.247,6.181 15.502,7.084 15.552,8.339 C14.95,8.389 14.598,8.49 13.845,8.691 C13.494,8.189 12.791,7.787 11.837,7.687 L11.837,7.787 C11.837,7.787 12.941,8.138 13.142,8.992 C12.49,9.293 11.686,9.745 11.234,10.147 L11.284,10.197 C14.096,9.143 16.707,8.892 17.36,9.695 C17.51,9.846 17.561,9.997 17.561,10.197 C17.561,10.398 17.46,10.699 17.26,11.001 C15.904,11.302 13.795,11.854 12.088,12.507 L12.339,13.21 C12.339,13.21 14.046,13.561 14.699,13.712 C14.699,13.712 14.95,13.762 14.799,13.963" id="Fill-4" fill="#080908"></path>
                    <path d="M45.829,22.85 C45.829,22.85 47.486,23.453 49.344,23.453 C51.352,23.453 52.557,23.152 53.26,22.449 C53.813,21.896 54.064,20.942 54.013,19.486 L54.013,10.046 L56.976,10.046 L56.976,19.938 C56.926,24.306 54.817,26.164 49.896,26.164 C47.486,26.164 45.829,25.762 45.829,25.762 L45.829,22.85" id="Fill-5" fill="#080908"></path>
                    <path d="M65.612,12.908 C70.332,12.908 73.093,15.419 73.093,19.636 C73.093,22.65 71.135,26.164 65.612,26.164 C60.039,26.164 58.081,22.65 58.081,19.636 C58.081,15.419 60.892,12.908 65.612,12.908 Z M70.181,19.486 C70.181,16.926 68.524,15.469 65.612,15.469 C62.7,15.469 60.993,16.926 60.993,19.486 C60.993,23.051 63.905,23.553 65.612,23.553 C67.319,23.553 70.181,23.051 70.181,19.486 L70.181,19.486 Z" id="Fill-6" fill="#080908"></path>
                    <polyline id="Fill-7" fill="#080908" points="84.893 13.21 84.893 18.231 77.311 18.231 77.311 13.21 74.399 13.21 74.399 25.862 77.311 25.862 77.311 20.791 84.893 20.791 84.893 25.862 87.855 25.862 87.855 13.21 84.893 13.21"></polyline>
                    <polyline id="Fill-8" fill="#080908" points="128.978 23.252 128.978 20.791 135.706 20.791 135.706 18.231 128.978 18.231 128.978 15.77 137.664 15.77 137.664 13.21 126.015 13.21 126.015 25.862 137.664 25.862 137.664 23.252 128.978 23.252"></polyline>
                    <polyline id="Fill-9" fill="#080908" points="142.133 23.252 142.133 20.791 148.861 20.791 148.861 18.231 142.133 18.231 142.133 15.77 150.87 15.77 150.87 13.21 139.22 13.21 139.22 25.862 150.87 25.862 150.87 23.252 142.133 23.252"></polyline>
                    <polyline id="Fill-10" fill="#080908" points="169.749 23.252 169.749 20.791 176.477 20.791 176.477 18.231 169.749 18.231 169.749 15.77 178.485 15.77 178.485 13.21 166.837 13.21 166.837 25.862 178.485 25.862 178.485 23.252 169.749 23.252"></polyline>
                    <path d="M116.023,12.657 C119.839,12.657 122.049,14.565 122.049,17.879 C122.049,22.549 118.283,23.252 116.023,23.252 L111.856,23.252 L111.856,12.657 L116.023,12.657 Z M116.023,10.046 L108.944,10.046 L108.944,25.862 L116.023,25.862 C122.651,25.862 124.961,21.645 124.961,18.08 C124.961,13.059 121.597,10.046 116.023,10.046 L116.023,10.046 Z" id="Fill-11" fill="#080908"></path>
                    <path d="M162.217,21.043 C164.476,20.49 165.28,18.783 165.28,17.277 C165.28,14.716 163.623,13.21 160.761,13.21 L152.476,13.21 L152.476,25.862 L155.389,25.862 L155.389,21.244 L158.853,21.244 L162.368,25.862 L165.933,25.862 L162.217,21.043 Z M155.389,18.632 L155.389,15.77 L160.761,15.77 C161.765,15.77 162.368,16.323 162.368,17.176 C162.368,18.432 161.364,18.632 160.761,18.632 L155.389,18.632 L155.389,18.632 Z" id="Fill-12" fill="#080908"></path>
                    <polyline id="Fill-13" fill="#080908" points="100.157 25.862 92.525 17.227 92.525 25.862 89.613 25.862 89.613 13.21 92.525 13.21 100.157 21.746 100.157 13.21 103.069 13.21 103.069 25.862 100.157 25.862"></polyline>
                </g>
            </g>
        </g>
    </g>
</svg>