<?xml version="1.0" encoding="UTF-8"?>
<svg width="300px" height="130px" viewBox="0 0 300 130" version="1.1" xmlns="http://www.w3.org/2000/svg" xmlns:xlink="http://www.w3.org/1999/xlink">
    <!-- Generator: Sketch 46.2 (44496) - http://www.bohemiancoding.com/sketch -->
    <title>brand5</title>
    <desc>Created with Sketch.</desc>
    <defs>
        <rect id="path-1" x="0" y="0" width="300" height="130"></rect>
        <polygon id="path-2" points="220.618872 34.9766667 0.0232631579 34.9766667 0.0232631579 0.028 110.321068 0.028 220.618872 0.028"></polygon>
    </defs>
    <g id="Page-1" stroke="none" stroke-width="1" fill="none" fill-rule="evenodd">
        <g id="Desktop-HD-Copy" transform="translate(-565.000000, -880.000000)">
            <g id="brand5" transform="translate(565.000000, 880.000000)">
                <g id="Rectangle-4">
                    <use fill="#FFFFFF" fill-rule="evenodd" xlink:href="#path-1"></use>
                    <rect stroke="#DEDEDE" stroke-width="1" x="0.5" y="0.5" width="299" height="129"></rect>
                </g>
                <g id="caterpillar-seeklogo.com" transform="translate(39.000000, 48.000000)">
                    <path d="M219.514803,8.41176471 C217.958848,8.41176471 216.748971,7.17647059 216.748971,5.47058824 C216.748971,3.82352941 217.958848,2.58823529 219.514803,2.58823529 C221.069959,2.58823529 222.308642,3.82352941 222.308642,5.47058824 C222.308642,7.17647059 221.069959,8.41176471 219.514803,8.41176471 Z M219.514803,2 C217.641975,2 216,3.47058824 216,5.47058824 C216,7.5 217.641975,9 219.514803,9 C221.416038,9 223,7.5 223,5.47058824 C223,3.47058824 221.416038,2 219.514803,2 L219.514803,2 Z" id="Fill-1" fill="#1A1919"></path>
                    <g id="Group-16">
                        <mask id="mask-3" fill="white">
                            <use xlink:href="#path-2"></use>
                        </mask>
                        <g id="Clip-3"></g>
                        <path d="M218.301474,4.788 L218.301474,3.612 L219.083116,3.612 C219.473937,3.612 219.893061,3.696 219.893061,4.172 C219.893061,4.76 219.473937,4.788 218.97184,4.788 L218.301474,4.788 Z M220.507209,4.2 C220.507209,3.444 220.060168,3.108 219.166863,3.108 L217.715242,3.108 L217.715242,6.944 L218.301474,6.944 L218.301474,5.292 L218.943537,5.292 L218.97184,5.32 L219.948505,6.944 L220.618872,6.944 L219.529768,5.264 C220.088084,5.18 220.507209,4.872 220.507209,4.2 L220.507209,4.2 Z" id="Fill-2" fill="#1A1919" mask="url(#mask-3)"></path>
                        <path d="M16.6657263,28.868 L9.43553684,34.776 C9.21221053,34.776 8.98888421,34.804 8.79347368,34.804 C2.06576842,34.804 0,32.06 0,26.236 L0,8.624 C0,2.8 2.06576842,0.028 8.79347368,0.028 C15.7165895,0.028 17.7823579,2.8 17.7823579,8.624 L17.7823579,14.56 L10.9150737,14.56 L10.9150737,7.392 C10.9150737,6.3 10.1055158,5.74 8.98888421,5.74 C8.03974737,5.74 7.03477895,6.3 7.03477895,7.392 L7.03477895,27.524 C7.03477895,28.644 8.03974737,29.372 8.98888421,29.372 C9.93802105,29.372 10.9150737,28.784 10.9150737,27.524 L10.9150737,20.664 L17.7823579,20.664 L17.7823579,26.236 C17.7823579,26.936 17.4473684,28.2523889 16.6657263,28.868" id="Fill-4" fill="#1A1919" mask="url(#mask-3)"></path>
                        <path d="M30.1769684,16.632 L28.1112,16.632 L30.1769684,7.28 L30.1769684,7.308 L32.2427368,16.632 L30.1769684,16.632 Z M35.6484632,1.092 L25.0404632,1.092 L19.2898105,26.852 L30.1769684,18.032 L30.3723789,17.892 L41.3991158,26.852 L35.6484632,1.092 L35.6484632,1.092 Z" id="Fill-5" fill="#1A1919" mask="url(#mask-3)"></path>
                        <polyline id="Fill-6" fill="#1A1919" mask="url(#mask-3)" points="51.5046316 35 45.1398316 29.876 45.1398316 7.532 40.0591579 7.532 40.0591579 1.092 58.0369263 1.092 58.0369263 7.532 52.9841684 7.532 52.9841684 35 51.5046316 35"></polyline>
                        <polyline id="Fill-7" fill="#1A1919" mask="url(#mask-3)" points="60.0189474 35 76.6567579 35 76.6567579 28.7 67.3049684 28.7 67.3049684 20.692 75.1493053 20.692 75.1493053 14.476 67.3049684 14.476 67.3049684 7.308 76.1542737 7.308 76.1542737 1.092 60.0189474 1.092 60.0189474 35"></polyline>
                        <path d="M92.1221053,12.432 C92.1221053,13.748 90.9496421,14.532 89.8609263,14.644 C89.7771789,14.672 89.6655158,14.672 89.5817684,14.672 L87.5718316,14.672 L87.5718316,6.664 L89.8609263,6.72 L90.0005053,6.72 C91.3683789,6.748 92.1221053,7.616 92.1221053,9.072 L92.1221053,12.432 Z M99.4081263,30.884 L99.4081263,22.652 C99.4081263,18.844 97.1748632,17.724 95.2207579,17.304 L95.2207579,17.164 C96.7840421,16.604 99.4081263,14.84 99.4081263,11.284 L99.4081263,7.308 C99.4081263,3.388 95.5278316,1.092 92.2058526,1.092 L80.1741474,1.092 L80.1741474,35 L87.5718316,35 L87.5718316,20.16 L89.8609263,20.132 L89.9446737,20.132 C91.0892211,20.104 92.3175158,21.532 92.3175158,22.568 L92.3175158,30.744 C92.3175158,32.452 92.5129263,33.852 93.0154105,35 L100.078105,35 C99.5756211,33.852 99.4081263,32.452 99.4081263,30.884 L99.4081263,30.884 Z" id="Fill-8" fill="#1A1919" mask="url(#mask-3)"></path>
                        <path d="M206.493095,12.432 C206.493095,13.748 205.321019,14.532 204.204,14.644 C204.120253,14.672 204.036505,14.672 203.952758,14.672 L201.942821,14.672 L201.942821,6.664 L204.204,6.72 L204.343579,6.72 C205.739368,6.748 206.493095,7.616 206.493095,9.072 L206.493095,12.432 Z M213.7512,30.884 L213.7512,22.652 C213.7512,18.844 211.545853,17.724 209.563832,17.304 L209.563832,17.164 C211.127116,16.604 213.7512,14.84 213.7512,11.284 L213.7512,7.308 C213.7512,3.388 209.898821,1.092 206.549314,1.092 L194.517221,1.092 L194.517221,35 L201.942821,35 L201.942821,20.16 L204.204,20.132 L204.287747,20.132 C205.460211,20.104 206.688505,21.532 206.688505,22.568 L206.688505,30.744 C206.688505,32.452 206.856388,33.852 207.358484,35 L214.421179,35 C213.918695,33.852 213.7512,32.452 213.7512,30.884 L213.7512,30.884 Z" id="Fill-9" fill="#1A1919" mask="url(#mask-3)"></path>
                        <path d="M112.723958,15.596 C112.472716,15.624 112.221474,15.624 111.9144,15.624 L110.518611,15.624 L110.518611,6.916 L111.746905,6.916 C112.109811,6.916 112.445188,6.944 112.723958,6.972 C115.348042,7.28 114.957221,8.96 114.957221,11.312 C114.957221,13.524 115.375958,15.316 112.723958,15.596 Z M115.710947,1.092 L103.176758,1.092 L103.176758,35 L110.518611,35 L110.518611,21.336 L114.315158,21.336 C120.596211,21.336 122.243242,18.144 122.243242,10.864 C122.243242,6.44 121.238274,1.092 115.710947,1.092 L115.710947,1.092 Z" id="Fill-10" fill="#1A1919" mask="url(#mask-3)"></path>
                        <polygon id="Fill-11" fill="#1A1919" mask="url(#mask-3)" points="124.671916 34.9766667 131.930021 34.9766667 131.930021 1.092 124.671916 1.092"></polygon>
                        <polyline id="Fill-12" fill="#1A1919" mask="url(#mask-3)" points="136.229053 35 151.638568 35 151.638568 28.644 143.710484 28.644 143.710484 1.092 136.229053 1.092 136.229053 35"></polyline>
                        <polyline id="Fill-13" fill="#1A1919" mask="url(#mask-3)" points="153.564758 35 168.946358 35 168.946358 28.644 161.018274 28.644 161.018274 1.092 153.564758 1.092 153.564758 35"></polyline>
                        <path d="M181.117642,22.792 L179.219368,22.792 L181.117642,7.672 L181.173474,7.308 L183.015916,22.792 L181.117642,22.792 Z M186.058737,1.092 L176.064884,1.092 L170.314232,35 L177.712304,35 L178.521474,28.868 L184.020884,28.868 L184.746695,35 L192.479368,35 L186.058737,1.092 L186.058737,1.092 Z" id="Fill-14" fill="#1A1919" mask="url(#mask-3)"></path>
                        <polyline id="Fill-15" fill="#FFDD31" mask="url(#mask-3)" points="30.4002947 20.664 12.6737684 35 48.1268211 35 30.4002947 20.664"></polyline>
                    </g>
                </g>
            </g>
        </g>
    </g>
</svg>