<?xml version="1.0" encoding="UTF-8"?>
<svg width="300px" height="130px" viewBox="0 0 300 130" version="1.1" xmlns="http://www.w3.org/2000/svg" xmlns:xlink="http://www.w3.org/1999/xlink">
    <!-- Generator: Sketch 46.2 (44496) - http://www.bohemiancoding.com/sketch -->
    <title>brand6</title>
    <desc>Created with Sketch.</desc>
    <defs>
        <rect id="path-1" x="0" y="0" width="300" height="130"></rect>
    </defs>
    <g id="Page-1" stroke="none" stroke-width="1" fill="none" fill-rule="evenodd">
        <g id="Desktop-HD-Copy" transform="translate(-915.000000, -880.000000)">
            <g id="brand6" transform="translate(915.000000, 880.000000)">
                <g id="Rectangle-4">
                    <use fill="#FFFFFF" fill-rule="evenodd" xlink:href="#path-1"></use>
                    <rect stroke="#DEDEDE" stroke-width="1" x="0.5" y="0.5" width="299" height="129"></rect>
                </g>
                <g id="cummins" transform="translate(107.000000, 21.000000)">
                    <g id="g10" transform="translate(43.500000, 44.000000) scale(-1, 1) rotate(-180.000000) translate(-43.500000, -44.000000) ">
                        <g id="g12">
                            <g id="g14-Clipped" transform="translate(0.000000, 0.000000)">
                                <g id="g14" transform="translate(0.136989, 0.138253)">
                                    <g id="g20" transform="translate(0.096852, 0.245042)" fill="#293E94">
                                        <path d="M70.6870839,85.7175873 C69.07635,84.7113734 67.3973947,82.8164617 68.687297,80.7119567 C70.6416031,77.5243685 74.740632,81.5400992 75.5491498,80.2211544 C75.905325,79.6402104 75.4995593,79.1693167 75.0263942,78.8740057 C74.7307687,78.6890217 74.4069232,78.6171295 74.1186953,78.6541816 C73.806083,78.6975934 73.533472,78.8751118 73.5858024,78.8845131 L70.6591379,77.0570694 C71.9257518,75.2652953 74.2323974,75.9026471 76.0053281,77.0097865 C78.8434967,78.7819285 79.4607758,80.7750006 78.4119767,82.4865873 C76.5250699,85.5638487 72.1046614,81.7391852 71.4013523,82.8853123 C71.1514816,83.2934386 71.3851874,83.6783383 71.9172584,84.0109778 C72.1539779,84.1580802 72.4142598,84.2343965 72.6635825,84.1943028 C72.9131791,84.1544856 73.131268,84.0308864 73.1342818,83.9742022 L75.9275175,85.7510448 L84.7751842,85.7435791 L84.7751842,54.6167581 L45.7707088,54.5537142 C39.4198305,54.5537142 34.2711806,49.3578458 34.2711806,42.9494884 C34.2711806,36.5391954 39.4198305,31.3436036 45.7707088,31.3436036 L84.7751842,31.3436036 L84.7751842,0.251069578 L42.4675945,0.153462132 C19.0485252,0.153462132 0.0630156175,19.314661 0.0630156175,42.9494884 C0.0630156175,66.5834863 19.0485252,85.7435791 42.4675945,85.7435791 L70.6870839,85.7175873 Z" id="path22"></path>
                                    </g>
                                    <g id="g24" transform="translate(12.825459, 42.192768)" fill="#FFFFFF">
                                        <path d="M13.6990473,4.42413354 L10.8466317,2.64231376 L10.1194862,3.21993969 C9.88249271,2.07878975 9.46878148,1.45692248 8.19805785,0.662790506 C6.51307504,-0.388770735 4.74562396,0.0273743263 3.30147039,2.38156639 L0.230691956,7.39051508 L3.30448418,9.31003601 L6.02949867,4.8668234 C6.72239648,3.73645728 7.3130994,3.60622185 8.05175203,4.06716126 C8.93890233,4.62100748 8.78629494,5.5027926 8.00654517,6.7750075 L5.5804439,10.7310124 L8.65478409,12.6510864 L13.6990473,4.42413354 Z" id="path26"></path>
                                    </g>
                                    <g id="g28" transform="translate(22.869518, 47.416591)" fill="#FFFFFF">
                                        <path d="M0,8.29525038 L2.82282568,10.0582676 L3.55983443,9.46598672 C3.55846452,10.3339464 4.23519746,11.249189 5.13138913,11.8257089 C6.50869134,12.7127477 7.67475425,12.5457367 8.5827271,11.8973246 C8.641633,13.301987 9.19562247,14.3646086 10.3334653,15.075235 C12.5949041,16.4873632 14.1322112,15.5798628 15.5092394,13.3348915 L18.4937138,8.46779159 L15.4199216,6.54744113 L12.8486104,10.7395842 C12.1077659,11.9490317 11.5877501,12.2971557 10.7745747,11.7892098 C9.87317735,11.2262389 10.2060642,10.2833454 10.812384,9.29455155 L13.3056106,5.2279433 L10.2318184,3.30842236 L7.66160316,7.50001238 C6.9204847,8.70945989 6.39992091,9.05703088 5.58729342,8.54991457 C4.68589611,7.98666707 5.018235,7.04377361 5.62510279,6.05470326 L8.11887736,1.98837152 L5.04481115,0.0685740698 L0,8.29525038 Z" id="path30"></path>
                                    </g>
                                    <g id="g32" transform="translate(52.518175, 66.102777)" fill="#FFFFFF">
                                        <polygon id="path34" points="5.20563797 0 0.161374777 8.22722933 3.23544099 10.1467503 8.27997815 1.91979745"></polygon>
                                    </g>
                                    <g id="g36" transform="translate(50.609952, 75.216602)" fill="#FFFFFF">
                                        <polygon id="path38" points="0 2.48857512 3.07379223 4.40864907 4.49849314 2.08514944 1.42442694 0.164798974"></polygon>
                                    </g>
                                    <g id="g40" transform="translate(57.390980, 68.976943)" fill="#FFFFFF">
                                        <path d="M0,8.29525038 L2.80748275,10.0485898 L3.70751015,9.43335874 C3.77573141,10.2836219 4.11108409,11.1889102 5.27879088,11.9186158 C7.31857902,13.1916602 9.05890598,12.5200214 10.4452496,10.2592892 L13.4680813,5.32969837 L10.3940151,3.40934791 L7.72763257,7.75827118 C7.2267954,8.57480032 6.5769126,9.16763422 5.70483125,8.62346579 C4.75904902,8.03229095 4.90288902,7.23207579 5.54784017,6.18023804 L8.11805542,1.9878185 L5.04453717,0.0677445448 L0,8.29525038 Z" id="path42"></path>
                                    </g>
                                    <g id="g44" transform="translate(37.643338, 56.643979)" fill="#FFFFFF">
                                        <path d="M0,8.29525038 L2.82282568,10.0577146 L3.55928646,9.46543371 C3.5587385,10.3336699 4.23519746,11.248636 5.13193709,11.8257089 C6.50896532,12.7121947 7.67448027,12.5451837 8.58327506,11.8967716 C8.64190698,13.3011575 9.19617044,14.3646086 10.3342873,15.0744055 C12.595178,16.4870866 14.1327591,15.5798628 15.5092394,13.3343385 L18.4937138,8.46779159 L15.4196476,6.54744113 L12.8491584,10.7395842 C12.1083139,11.9484787 11.5874761,12.2966027 10.7751226,11.7892098 C9.87345133,11.2259623 10.2060642,10.2827924 10.812658,9.29455155 L13.3061586,5.2279433 L10.2320924,3.30759284 L7.66187714,7.50001238 C6.92021072,8.70890687 6.40019489,9.05703088 5.58701944,8.54936155 C4.68562213,7.98611405 5.01905694,7.04377361 5.62482881,6.05470326 L8.11887736,1.9878185 L5.04481115,0.0674680365 L0,8.29525038 Z" id="path46"></path>
                                    </g>
                                    <g id="g48" transform="translate(1.934579, 36.997702)" fill="#FFFFFF">
                                        <path d="M10.9592378,1.10603338 C7.64763013,-0.962525553 3.30092243,0.0696801032 1.25154496,3.41183648 C-0.798654456,6.75454588 0.225212337,11.1410743 3.53682003,13.2093567 L7.53529794,15.705121 L9.47289119,12.5454602 L6.01552564,10.3862065 C4.43355966,9.39796567 3.94422969,7.30203241 4.92371157,5.70574972 C5.90264549,4.10919053 7.97942106,3.61589964 9.56138704,4.60331095 L13.0182046,6.76284113 L14.9560719,3.60262724 L10.9592378,1.10603338 Z" id="path50"></path>
                                    </g>
                                </g>
                            </g>
                        </g>
                    </g>
                </g>
            </g>
        </g>
    </g>
</svg>