<?xml version="1.0" encoding="UTF-8"?>
<svg width="300px" height="130px" viewBox="0 0 300 130" version="1.1" xmlns="http://www.w3.org/2000/svg" xmlns:xlink="http://www.w3.org/1999/xlink">
    <!-- Generator: Sketch 46.2 (44496) - http://www.bohemiancoding.com/sketch -->
    <title>brand3</title>
    <desc>Created with Sketch.</desc>
    <defs>
        <rect id="path-1" x="0" y="0" width="300" height="130"></rect>
    </defs>
    <g id="Page-1" stroke="none" stroke-width="1" fill="none" fill-rule="evenodd">
        <g id="Desktop-HD-Copy" transform="translate(-915.000000, -700.000000)">
            <g id="brand3" transform="translate(915.000000, 700.000000)">
                <g id="Rectangle-4">
                    <use fill="#FFFFFF" fill-rule="evenodd" xlink:href="#path-1"></use>
                    <rect stroke="#DEDEDE" stroke-width="1" x="0.5" y="0.5" width="299" height="129"></rect>
                </g>
                <g id="Kubota" transform="translate(63.000000, 46.000000)" fill="#1A1919">
                    <path d="M0.672,27.482 L7.311,27.482 L7.311,0.97 L0.672,0.97 L0.672,27.482 Z M171.878,37.154 C172.889,37.154 173.768,36.275 173.768,35.22 C173.768,34.165 172.889,33.285 171.878,33.285 C171.834,33.285 171.834,33.285 171.79,33.285 C169.24,33.285 169.284,37.154 171.79,37.154 C171.834,37.154 171.834,37.154 171.878,37.154 Z M171.878,32.758 C173.197,32.801 174.252,33.857 174.252,35.22 C174.252,36.539 173.197,37.638 171.878,37.682 C171.834,37.682 171.834,37.682 171.79,37.682 C170.471,37.682 169.372,36.539 169.372,35.22 C169.372,33.857 170.471,32.758 171.79,32.758 C171.834,32.758 171.834,32.758 171.878,32.758 Z M171.878,35.879 L172.142,36.495 L173.021,36.495 L172.449,35.308 C172.801,35.22 172.977,34.956 172.977,34.604 C172.977,33.989 172.361,33.857 171.878,33.813 C171.834,33.813 171.834,33.813 171.834,33.813 L170.735,33.813 L170.735,36.495 L171.57,36.495 L171.57,35.484 L171.658,35.484 L171.878,35.879 Z M171.878,34.34 C172.01,34.385 172.142,34.472 172.142,34.648 C172.142,34.868 172.01,34.956 171.878,34.956 C171.834,34.956 171.79,35 171.746,35 L171.57,35 L171.57,34.34 L171.702,34.34 C171.746,34.34 171.79,34.34 171.878,34.34 Z M106.675,11.61 C113.886,11.61 119.777,17.501 119.777,24.668 C119.777,31.878 113.886,37.726 106.675,37.726 C106.104,37.726 105.576,37.726 105.049,37.638 L105.049,30.911 C105.576,31.043 106.104,31.131 106.675,31.131 C110.237,31.131 113.138,28.229 113.138,24.668 C113.138,21.107 110.237,18.249 106.675,18.249 C103.114,18.249 100.212,21.107 100.212,24.668 C100.212,25.415 100.344,26.163 100.608,26.822 L93.749,26.822 C93.661,26.119 93.573,25.415 93.573,24.668 C93.573,17.501 99.465,11.61 106.675,11.61 Z M33.603,37.814 L25.162,37.814 L9.333,19.744 L25.777,0.97 L34.263,0.97 L17.775,19.744 L33.603,37.814 Z M38.308,11.961 C38.308,16.255 38.308,20.55 38.308,24.844 C38.308,25.547 38.44,26.207 38.659,26.822 L31.844,26.822 C31.712,26.207 31.668,25.503 31.668,24.844 L31.668,11.961 L38.308,11.961 Z M153.192,11.61 C160.402,11.61 166.294,17.501 166.294,24.668 C166.294,24.712 166.294,24.8 166.294,24.844 L166.294,37.726 L159.655,37.726 L159.655,36.055 C157.72,37.11 155.522,37.726 153.192,37.726 C152.664,37.726 152.093,37.726 151.565,37.638 L151.565,30.911 C152.093,31.043 152.62,31.131 153.192,31.131 C156.577,31.131 159.391,28.493 159.655,25.195 L159.655,24.844 C159.655,24.8 159.655,24.712 159.655,24.668 C159.655,21.107 156.753,18.249 153.192,18.249 C149.631,18.249 146.729,21.107 146.729,24.668 C146.729,25.415 146.905,26.163 147.124,26.822 L140.31,26.822 C140.178,26.119 140.134,25.415 140.134,24.668 C140.134,17.501 145.981,11.61 153.192,11.61 Z M131.517,0.97 L124.834,0.97 L124.834,37.77 L131.517,37.77 L131.517,17.853 L138.331,17.853 L138.331,11.214 L131.517,11.214 L131.517,0.97 Z M70.095,0.97 L63.456,0.97 L63.456,24.844 C63.456,25.503 63.544,26.207 63.632,26.822 L70.491,26.822 C70.227,26.207 70.095,25.547 70.095,24.844 L70.095,24.14 C70.359,20.843 73.173,18.249 76.558,18.249 C80.12,18.249 82.978,21.107 82.978,24.668 C82.978,28.229 80.12,31.131 76.558,31.131 C75.987,31.131 75.415,31.043 74.932,30.911 L74.932,37.638 C75.459,37.726 75.987,37.726 76.558,37.726 C83.769,37.726 89.573,31.878 89.573,24.668 C89.573,17.501 83.769,11.61 76.558,11.61 C74.228,11.61 72.03,12.225 70.095,13.325 L70.095,0.97 Z M51.19,11.961 L57.829,11.961 L57.829,24.844 C57.697,30.867 51.893,37.726 44.727,37.726 C44.199,37.726 43.628,37.726 43.1,37.638 L43.1,30.911 C43.628,31.043 44.155,31.131 44.727,31.131 C48.2,31.131 51.014,26.866 51.19,24.844 C51.19,20.535 51.19,16.27 51.19,11.961 L51.19,11.961 Z" id="Fill-2"></path>
                </g>
            </g>
        </g>
    </g>
</svg>