<?xml version="1.0" encoding="UTF-8"?>
<svg width="90px" height="90px" viewBox="0 0 90 90" version="1.1" xmlns="http://www.w3.org/2000/svg" xmlns:xlink="http://www.w3.org/1999/xlink">
    <!-- Generator: Sketch 46.2 (44496) - http://www.bohemiancoding.com/sketch -->
    <title>icon6.svg</title>
    <desc>Created with Sketch.</desc>
    <defs></defs>
    <g id="Page-1" stroke="none" stroke-width="1" fill="none" fill-rule="evenodd">
        <g id="Desktop-HD-Copy" transform="translate(-1074.000000, -1647.000000)">
            <g id="Group-11" transform="translate(1037.000000, 1647.000000)">
                <g id="icon6.svg" transform="translate(37.000000, 0.000000)">
                    <circle id="Oval-2-Copy-3" fill="#FFFFFF" cx="45" cy="45" r="45"></circle>
                    <g id="180767" transform="translate(21.690647, 21.043165)" fill-rule="nonzero">
                        <path d="M36.351259,29.2907914 L24.0183453,29.2907914 L24.0183453,26.6199281 L28.1251619,23.8820504 C31.8328058,23.7478597 34.8096043,20.6978957 34.8096043,16.9578777 L34.8096043,16.1870504 L34.038777,16.1870504 C30.3581655,16.1870504 27.3457554,19.0714209 27.1230216,22.6973201 L24.0181835,24.7676439 L24.0181835,13.103741 L22.4765288,13.103741 L22.4765288,20.9136691 L19.3716906,18.8439928 C19.1491187,15.217446 16.1367086,12.3329137 12.4560971,12.3329137 L11.6852698,12.3329137 L11.6852698,13.103741 C11.6852698,16.843759 14.6620683,19.8938849 18.3697122,20.0279137 L22.4765288,22.7657914 L22.4765288,29.2907914 L10.1436151,29.2907914 L10.1436151,35.4572482 L12.5464209,35.4572482 L14.0880755,47.7901619 L32.4071223,47.7901619 L33.948777,35.4572482 L36.3514209,35.4572482 L36.3514209,29.2907914 L36.351259,29.2907914 Z M33.2033633,17.7934532 C32.8433633,20.101241 31.0158453,21.9289209 28.7080576,22.288759 C29.0680576,19.9809712 30.8957374,18.1534532 33.2033633,17.7934532 Z M13.2916727,13.9393165 C15.5994604,14.2993165 17.4271403,16.1268345 17.7869784,18.4346223 C15.4793525,18.0747842 13.6516727,16.2471043 13.2916727,13.9393165 Z M31.0457914,46.2486691 L15.4492446,46.2486691 L14.1003777,35.4572482 L32.3948201,35.4572482 L31.0457914,46.2486691 Z M34.8099281,33.9157554 L34.1415647,33.9157554 L12.353795,33.9157554 L11.6854317,33.9157554 L11.6854317,30.832446 L34.8097662,30.832446 L34.8097662,33.9157554 L34.8099281,33.9157554 Z" id="Shape" fill="#333333"></path>
                        <circle id="Oval" fill="#F9BA48" cx="23.247518" cy="6.93728417" r="6.93728417"></circle>
                        <path d="M24.0183453,9.24976619 L22.4766906,9.24976619 C22.0519424,9.24976619 21.7058633,8.9044964 21.7058633,8.47893885 L20.1642086,8.47893885 C20.1642086,9.75383094 21.2017986,10.7914209 22.4766906,10.7914209 L22.4766906,11.5622482 L24.0183453,11.5622482 L24.0183453,10.7914209 C25.2932374,10.7914209 26.3308273,9.75383094 26.3308273,8.47893885 C26.3308273,7.20404676 25.2932374,6.16645683 24.0183453,6.16645683 L22.4766906,6.16645683 C22.0519424,6.16645683 21.7058633,5.82118705 21.7058633,5.3956295 C21.7058633,4.97007194 22.0519424,4.62480216 22.4766906,4.62480216 L24.0183453,4.62480216 C24.4430935,4.62480216 24.7891727,4.97007194 24.7891727,5.3956295 L26.3308273,5.3956295 C26.3308273,4.12073741 25.2932374,3.08314748 24.0183453,3.08314748 L24.0183453,2.31232014 L22.4766906,2.31232014 L22.4766906,3.08314748 C21.2017986,3.08314748 20.1642086,4.12073741 20.1642086,5.3956295 C20.1642086,6.67052158 21.2017986,7.70811151 22.4766906,7.70811151 L24.0183453,7.70811151 C24.4430935,7.70811151 24.7891727,8.05338129 24.7891727,8.47893885 C24.7893345,8.9044964 24.4432554,9.24976619 24.0183453,9.24976619 Z" id="Shape" fill="#333333"></path>
                        <polygon id="Shape" fill="#F9BA48" points="46.3718525 7.70811151 44.8301978 7.70811151 44.8301978 6.16645683 43.288705 6.16645683 43.288705 7.70811151 41.7470504 7.70811151 41.7470504 9.24976619 43.288705 9.24976619 43.288705 10.7914209 44.8301978 10.7914209 44.8301978 9.24976619 46.3718525 9.24976619"></polygon>
                        <polygon id="Shape" fill="#F9BA48" points="37.8929137 6.93728417 39.4345683 6.93728417 39.4345683 4.62480216 41.7470504 4.62480216 41.7470504 3.08330935 39.4345683 3.08330935 39.4345683 0.770827338 37.8929137 0.770827338 37.8929137 3.08330935 35.5805935 3.08330935 35.5805935 4.62480216 37.8929137 4.62480216"></polygon>
                        <polygon id="Shape" fill="#F9BA48" points="40.2053957 10.7914209 38.663741 10.7914209 38.663741 12.3329137 37.1220863 12.3329137 37.1220863 13.8745683 38.663741 13.8745683 38.663741 15.416223 40.2053957 15.416223 40.2053957 13.8745683 41.7470504 13.8745683 41.7470504 12.3329137 40.2053957 12.3329137"></polygon>
                        <polygon id="Shape" fill="#F9BA48" points="9.37294964 4.62480216 7.83129496 4.62480216 7.83129496 6.16645683 6.28964029 6.16645683 6.28964029 7.70811151 7.83129496 7.70811151 7.83129496 9.24976619 9.37294964 9.24976619 9.37294964 7.70811151 10.9146043 7.70811151 10.9146043 6.16645683 9.37294964 6.16645683"></polygon>
                        <polygon id="Shape" fill="#F9BA48" points="3.97715827 9.24976619 2.43566547 9.24976619 2.43566547 11.5622482 0.123183453 11.5622482 0.123183453 13.103741 2.43566547 13.103741 2.43566547 15.416223 3.97715827 15.416223 3.97715827 13.103741 6.28964029 13.103741 6.28964029 11.5622482 3.97715827 11.5622482"></polygon>
                    </g>
                </g>
            </g>
        </g>
    </g>
</svg>