<?xml version="1.0" encoding="UTF-8"?>
<svg width="90px" height="90px" viewBox="0 0 90 90" version="1.1" xmlns="http://www.w3.org/2000/svg" xmlns:xlink="http://www.w3.org/1999/xlink">
    <!-- Generator: Sketch 46.2 (44496) - http://www.bohemiancoding.com/sketch -->
    <title>icon1.svg</title>
    <desc>Created with Sketch.</desc>
    <defs></defs>
    <g id="Page-1" stroke="none" stroke-width="1" fill="none" fill-rule="evenodd">
        <g id="Desktop-HD-Copy" transform="translate(-275.000000, -1395.000000)">
            <g id="Group-14" transform="translate(155.000000, 1395.000000)">
                <g id="icon1.svg" transform="translate(120.000000, 0.000000)">
                    <circle id="Oval-2" fill="#FFFFFF" cx="45" cy="45" r="45"></circle>
                    <g id="180774" transform="translate(21.205036, 20.881295)" fill-rule="nonzero">
                        <polygon id="Shape" fill="#F9BA48" points="33.1449281 0.000161870504 6.93728417 0.000161870504 6.93728417 47.7904856 40.8530396 47.7904856 40.8530396 8.47910072"></polygon>
                        <polygon id="Shape" fill="#333333" points="40.8530396 8.47910072 33.1449281 8.47910072 33.1449281 0.000161870504 31.6032734 0.000161870504 31.6032734 10.0207554 40.8530396 10.0207554"></polygon>
                        <path d="M43.9363489,16.1872122 L42.3946942,16.1872122 L17.4951259,16.1872122 L11.7140827,20.0413489 L17.4951259,23.8954856 L42.3946942,23.8954856 L43.9363489,23.8954856 C46.0615468,23.8954856 47.7904856,22.1665468 47.7904856,20.0413489 C47.7904856,17.9161511 46.0613849,16.1872122 43.9363489,16.1872122 Z M16.9578777,18.3978777 L16.9578777,21.6838489 L14.4935612,20.0413489 L16.9578777,18.3978777 Z M42.3946942,22.3536691 L18.4995324,22.3536691 L18.4995324,20.8120144 L40.0822122,20.8120144 L40.0822122,19.2703597 L18.4995324,19.2703597 L18.4995324,17.728705 L42.3946942,17.728705 L42.3946942,22.3536691 Z M43.9363489,22.3536691 L43.9363489,17.7288669 C45.211241,17.7288669 46.2488309,18.7664568 46.2488309,20.0413489 C46.2488309,21.316241 45.211241,22.3536691 43.9363489,22.3536691 Z" id="Shape" fill="#333333"></path>
                        <path d="M0,40.0823741 L36.9989029,40.0823741 L36.9989029,29.2909532 L0,29.2909532 L0,40.0823741 Z M1.54165468,30.8326079 L3.08330935,30.8326079 L3.08330935,33.1450899 L4.62496403,33.1450899 L4.62496403,30.8326079 L6.16661871,30.8326079 L6.16661871,33.1450899 L7.70827338,33.1450899 L7.70827338,30.8326079 L9.24992806,30.8326079 L9.24992806,34.6867446 L10.7915827,34.6867446 L10.7915827,30.8326079 L12.3332374,30.8326079 L12.3332374,33.1450899 L13.8748921,33.1450899 L13.8748921,30.8326079 L15.4165468,30.8326079 L15.4165468,33.1450899 L16.9582014,33.1450899 L16.9582014,30.8326079 L18.4998561,30.8326079 L18.4998561,34.6867446 L20.0415108,34.6867446 L20.0415108,30.8326079 L21.5831655,30.8326079 L21.5831655,33.1450899 L23.1248201,33.1450899 L23.1248201,30.8326079 L24.6664748,30.8326079 L24.6664748,33.1450899 L26.2081295,33.1450899 L26.2081295,30.8326079 L27.7497842,30.8326079 L27.7497842,34.6867446 L29.2914388,34.6867446 L29.2914388,30.8326079 L35.4578957,30.8326079 L35.4578957,34.6867446 L35.4578957,38.5408813 L1.54165468,38.5408813 L1.54165468,30.8326079 Z" id="Shape" fill="#333333"></path>
                        <path d="M33.1449281,32.3742626 C31.870036,32.3742626 30.832446,33.4118525 30.832446,34.6867446 C30.832446,35.9616367 31.870036,36.9992266 33.1449281,36.9992266 C34.4198201,36.9992266 35.4574101,35.9616367 35.4574101,34.6867446 C35.4574101,33.4118525 34.4198201,32.3742626 33.1449281,32.3742626 Z M33.1449281,35.4575719 C32.7201799,35.4575719 32.3741007,35.1123022 32.3741007,34.6867446 C32.3741007,34.2611871 32.7201799,33.9159173 33.1449281,33.9159173 C33.5696763,33.9159173 33.9157554,34.2611871 33.9157554,34.6867446 C33.9157554,35.1121403 33.5696763,35.4575719 33.1449281,35.4575719 Z" id="Shape" fill="#333333"></path>
                        <rect id="Rectangle-path" fill="#333333" x="10.7914209" y="3.85429856" width="18.4995324" height="1.54165468"></rect>
                        <rect id="Rectangle-path" fill="#333333" x="10.7914209" y="7.70827338" width="18.4995324" height="1.54165468"></rect>
                        <rect id="Rectangle-path" fill="#333333" x="10.7914209" y="11.5624101" width="18.4995324" height="1.54165468"></rect>
                    </g>
                </g>
            </g>
        </g>
    </g>
</svg>