<?xml version="1.0" encoding="UTF-8"?>
<svg width="90px" height="90px" viewBox="0 0 90 90" version="1.1" xmlns="http://www.w3.org/2000/svg" xmlns:xlink="http://www.w3.org/1999/xlink">
    <!-- Generator: Sketch 46.2 (44496) - http://www.bohemiancoding.com/sketch -->
    <title>icon3.svg</title>
    <desc>Created with Sketch.</desc>
    <defs></defs>
    <g id="Page-1" stroke="none" stroke-width="1" fill="none" fill-rule="evenodd">
        <g id="Desktop-HD-Copy" transform="translate(-1075.000000, -1395.000000)">
            <g id="Group-12" transform="translate(990.000000, 1395.000000)">
                <g id="icon3.svg" transform="translate(85.000000, 0.000000)">
                    <circle id="Oval-2-Copy-2" fill="#FFFFFF" cx="45" cy="45" r="45"></circle>
                    <g id="428777" transform="translate(22.823741, 19.719424)" fill-rule="nonzero">
                        <g id="Group" fill="#333333">
                            <path d="M40.6093751,17.7666976 C40.6093751,8.09431887 32.7318962,0.12519378 23.0496937,0.00154560223 C22.973852,0.000772801114 22.8995581,0 22.8244902,0 C14.4641007,0 7.15698253,5.94670457 5.39791881,14.2179949 C4.96298972,16.2589626 4.90881706,18.3640729 5.23540082,20.4807751 L0.00309558068,29.826259 L5.78796197,31.4800534 L5.7995704,40.9437758 L13.5377482,40.9437758 L13.5377482,47.8989858 L15.0855385,47.8989858 L15.0855385,39.3981736 L7.34581295,39.3981736 L7.33343063,30.3146693 L2.3077554,28.8772592 L6.85129394,20.7628475 L6.80563412,20.4939127 C6.46434635,18.4792202 6.49917163,16.4761197 6.91243165,14.5394802 C8.53374203,6.91270596 15.303777,1.48300534 23.0303464,1.54714783 C31.8705509,1.65997679 39.0623587,8.93667208 39.0623587,17.7674704 L39.0646804,20.5874217 C39.0685498,26.7791042 36.0163073,32.5751126 30.8985385,36.0921304 L30.5634419,36.323198 L30.5634419,47.8989858 L32.1112323,47.8989858 L32.1112323,37.1300023 C37.4464656,33.303864 40.6155663,27.1508215 40.6116968,20.5858761 L40.6093751,17.7666976 Z" id="Shape"></path>
                            <path d="M35.9807081,19.3053446 C35.9807081,18.7411998 35.8723628,18.184783 35.6587677,17.6461406 C36.3692035,16.8107426 36.7546033,15.7728707 36.7546033,14.6685379 C36.7546033,12.3748642 35.0783464,10.4652727 32.8843535,10.0958738 C32.8851274,10.0750081 32.8851274,10.0525969 32.8851274,10.0317313 C32.8851274,7.04949176 30.4543227,4.62212346 27.4678613,4.62212346 C26.6900966,4.62212346 25.9231665,4.79136691 25.2166002,5.11594337 C24.3575766,4.3045022 23.2346547,3.84932235 22.0505951,3.84932235 C20.5693597,3.84932235 19.2034347,4.55411696 18.3358983,5.72954746 C17.7895283,5.50852634 17.2122025,5.39492458 16.6333289,5.39492458 C14.0725098,5.39492458 11.9899579,7.47453237 11.9899579,10.0317313 C11.9899579,10.1213762 11.9930534,10.2102483 11.9984707,10.3014388 C10.1627914,10.942091 8.89437718,12.6747111 8.89437718,14.6685379 C8.89437718,15.6577234 9.21863926,16.619088 9.81531244,17.4197099 C9.71625385,17.7968369 9.66827235,18.1639174 9.66827235,18.5325435 C9.66827235,21.0897424 11.7508243,23.1693502 14.3116434,23.1693502 C14.8773607,23.1693502 15.4345653,23.061158 15.9739702,22.8470921 C16.2819805,23.1067533 16.6232682,23.3246832 16.9924162,23.5001091 L17.6540966,22.1021119 C17.2880442,21.9290044 16.964556,21.6933001 16.6929188,21.4004084 L16.2866238,20.963003 L15.7603751,21.2443026 C15.2906208,21.4962358 14.8022929,21.623748 14.3116434,21.623748 C12.6044306,21.623748 11.2160627,20.2373428 11.2160627,18.5325435 C11.2160627,18.2048758 11.2787482,17.870253 11.4064409,17.508582 L11.560446,17.0742678 L11.2516619,16.7326897 C10.7292826,16.1561801 10.4421675,15.4235646 10.4421675,14.6685379 C10.4421675,13.191715 11.4907955,11.9335948 12.9403011,11.6484312 L12.9403011,11.6484312 C13.1345488,11.6066999 13.3318921,11.5773335 13.5377482,11.5773335 C14.5198212,11.5773335 15.4221829,12.0271037 16.0134388,12.8122697 L17.2501233,11.8825899 C16.3624656,10.7063866 15.0096968,10.0317313 13.5377482,10.0317313 C13.5377482,8.326932 14.9261161,6.9405268 16.6333289,6.9405268 C16.8144203,6.9405268 16.9893207,6.96371084 17.1626732,6.99385008 C17.2300021,7.0062149 17.296557,7.01935252 17.3623381,7.03635414 C17.4482405,7.05721977 17.5302734,7.08658621 17.6138541,7.11440706 C17.8204841,7.18705036 18.0240185,7.27514969 18.2213618,7.39416106 L18.4101922,7.50776282 C19.2049825,8.06727083 19.7289096,8.98767696 19.7289096,10.0317313 L21.2766999,10.0317313 C21.2766999,8.63682525 20.6513926,7.39184265 19.6716413,6.54176143 C20.2520627,5.8253748 21.1149558,5.39492458 22.0505951,5.39492458 C22.9784954,5.39492458 23.8529969,5.81996519 24.450444,6.56108146 L24.8768602,7.09045022 L25.4572816,6.73650731 C26.0655632,6.36401717 26.7620689,6.16772569 27.4678613,6.16772569 C29.6014902,6.16772569 31.3373371,7.90111859 31.3373371,10.0317313 C31.3373371,10.0541425 31.3311459,10.0804177 31.3311459,10.102829 C29.1417965,10.4745463 27.4678613,12.3779554 27.4678613,14.6685379 L29.0156516,14.6685379 C29.0156516,12.9846043 30.3715159,11.6175191 32.0493207,11.5835159 L32.1522487,11.5773335 C33.8401141,11.5989719 35.2068129,12.9776491 35.2068129,14.6685379 C35.2068129,15.5286656 34.852369,16.3300603 34.2092621,16.9266628 L33.7712374,17.3323834 L34.0529353,17.8578881 C34.3052251,18.3277512 34.4329178,18.8153887 34.4329178,19.3053446 C34.4329178,21.0101439 33.0445498,22.3965491 31.3373371,22.3965491 C30.5882066,22.3965491 29.8591973,22.1137039 29.2841932,21.5990183 L28.4336824,20.8393548 L28.0413176,21.9089116 C27.6768129,22.8996426 26.8108243,23.6500325 25.7799959,23.8671896 L26.0988407,25.3795614 C27.3417163,25.1175818 28.3957616,24.3756927 29.0558941,23.3316384 C29.750852,23.729631 30.5355817,23.9421513 31.3373371,23.9421513 C33.8981562,23.9421513 35.9807081,21.8625435 35.9807081,19.3053446 Z" id="Shape"></path>
                        </g>
                        <polygon id="Shape" fill="#F9BA48" points="19.7077338 38.6870504 20.4766187 27.0863309 15.8633094 23.9928058 23.5521583 10.8453237 22.7832734 21.6726619 28.1654676 25.5395683"></polygon>
                    </g>
                </g>
            </g>
        </g>
    </g>
</svg>