<?xml version="1.0" encoding="UTF-8"?>
<svg width="90px" height="90px" viewBox="0 0 90 90" version="1.1" xmlns="http://www.w3.org/2000/svg" xmlns:xlink="http://www.w3.org/1999/xlink">
    <!-- Generator: Sketch 46.2 (44496) - http://www.bohemiancoding.com/sketch -->
    <title>icon2.svg</title>
    <desc>Created with Sketch.</desc>
    <defs></defs>
    <g id="Page-1" stroke="none" stroke-width="1" fill="none" fill-rule="evenodd">
        <g id="Desktop-HD-Copy" transform="translate(-675.000000, -1395.000000)">
            <g id="Group-13" transform="translate(555.000000, 1395.000000)">
                <g id="icon2.svg" transform="translate(120.000000, 0.000000)">
                    <circle id="Oval-2-Copy-5" fill="#FFFFFF" cx="45" cy="45" r="45"></circle>
                    <g id="cons" transform="translate(22.823741, 19.910072)" fill-rule="nonzero">
                        <path d="M25.0395863,22.0043525 L24.7679676,22.0043525 C22.9613309,23.4254137 20.6881835,24.2805755 18.2107554,24.2805755 C15.7333273,24.2805755 13.4601799,23.4254137 11.6535432,22.0041906 L11.3819245,22.0041906 L3.7942446,22.0041906 L3.7942446,34.1444784 L32.6274281,34.1444784 L32.6274281,22.0041906 L25.0395863,22.0041906 L25.0395863,22.0043525 Z" id="Shape" fill="#F9BA48"></path>
                        <path d="M44.7677158,37.1797122 L44.0088669,37.1797122 L44.0088669,28.8331835 L40.9019245,28.8331835 L40.1430755,21.2455036 L33.386277,21.2455036 L33.386277,14.4166727 L29.5536691,14.4166727 C29.5703417,14.1648022 29.5923561,13.9143885 29.5923561,13.6578237 C29.5923561,10.5999281 28.373795,7.82514388 26.4048022,5.77796763 L26.9367086,5.24606115 L28.2972302,6.60658273 L29.3701079,5.53370504 L25.5763489,1.73978417 L24.5034712,2.81266187 L25.8639928,4.17318345 L25.2820683,4.75510791 C23.5239928,3.35589928 21.3463489,2.47273381 18.9699281,2.31491007 L18.9699281,1.51753597 L21.2461511,1.51753597 L21.2461511,0 L15.1760072,0 L15.1760072,1.51753597 L17.4522302,1.51753597 L17.4522302,2.31507194 C15.0758094,2.47289568 12.8981655,3.3568705 11.1400899,4.75526978 L10.5581655,4.17334532 L11.9186871,2.81282374 L10.8458094,1.73994604 L7.05156475,5.53370504 L8.12444245,6.60658273 L9.48496403,5.24606115 L10.0168705,5.77796763 C8.0478777,7.82514388 6.82931655,10.5999281 6.82931655,13.6578237 C6.82931655,13.9142266 6.85133094,14.1646403 6.8680036,14.4166727 L3.03539568,14.4166727 L3.03539568,37.1797122 L2.27670863,37.1797122 C1.02172662,37.1797122 0.000323741007,38.2009532 0.000323741007,39.4559353 C0.000323741007,40.7109173 1.02156475,41.7323201 2.27654676,41.7323201 L3.03523381,41.7323201 L4.55276978,41.7323201 L6.82899281,41.7323201 C6.82899281,44.6603957 9.21156475,47.043777 12.1402878,47.043777 C15.0690108,47.043777 17.4515827,44.6605576 17.4515827,41.7323201 L31.8680935,41.7323201 C31.8680935,44.6603957 34.2506655,47.043777 37.1793885,47.043777 C40.1081115,47.043777 42.4906835,44.6605576 42.4906835,41.7323201 L44.0082194,41.7323201 L44.7670683,41.7323201 C46.0220504,41.7323201 47.0432914,40.7110791 47.0432914,39.4559353 C47.0432914,38.2007914 46.0226978,37.1797122 44.7677158,37.1797122 Z M38.7696043,22.7630396 L39.3766187,28.8331835 L33.3861151,28.8331835 L33.3861151,22.7630396 L38.7696043,22.7630396 Z M18.2107554,3.79392086 C23.6496043,3.79392086 28.0746583,8.21897482 28.0746583,13.6579856 C28.0746583,19.0969964 23.6496043,23.5218885 18.2107554,23.5218885 C12.7719065,23.5218885 8.34685252,19.0966727 8.34685252,13.6578237 C8.34685252,8.21897482 12.7719065,3.79392086 18.2107554,3.79392086 Z M3.03539568,40.2147842 L2.27670863,40.2147842 C1.85859712,40.2147842 1.51802158,39.8748561 1.51802158,39.4559353 C1.51802158,39.0370144 1.85875899,38.6970863 2.27670863,38.6970863 L3.03539568,38.6970863 L3.03539568,40.2147842 Z M12.1406115,45.5260791 C10.048759,45.5260791 8.34685252,43.8241727 8.34685252,41.7321583 C8.34685252,39.6401439 10.048759,37.9383993 12.1406115,37.9383993 C14.232464,37.9383993 15.9343705,39.6403058 15.9343705,41.7323201 C15.9343705,43.8243345 14.2326259,45.5260791 12.1406115,45.5260791 Z M17.2282014,40.2147842 C16.5732734,38.0233813 14.5413129,36.4208633 12.1406115,36.4208633 C9.73991007,36.4208633 7.70794964,38.0233813 7.05302158,40.2147842 L4.55293165,40.2147842 L4.55293165,37.1797122 L4.55293165,15.9342086 L7.05836331,15.9342086 C8.11602518,21.1226439 12.7142806,25.0394245 18.2107554,25.0394245 C23.7072302,25.0394245 28.3053237,21.1226439 29.3631475,15.9342086 L31.8685791,15.9342086 L31.8685791,21.2456655 L31.8685791,28.8333453 L31.8685791,30.3508813 L31.8685791,40.214946 L17.2282014,40.214946 L17.2282014,40.2147842 Z M37.1798741,45.5260791 C35.0880216,45.5260791 33.3861151,43.8241727 33.3861151,41.7321583 C33.3861151,39.6401439 35.0880216,37.9382374 37.1798741,37.9382374 C39.2717266,37.9382374 40.9736331,39.6401439 40.9736331,41.7321583 C40.9736331,43.8241727 39.2718885,45.5260791 37.1798741,45.5260791 Z M42.4914928,40.2147842 L42.2676259,40.2147842 C41.6126978,38.0233813 39.5807374,36.4208633 37.1798741,36.4208633 C35.6942266,36.4208633 34.3511871,37.0354856 33.3861151,38.0225719 L33.3861151,30.3507194 L41.0534353,30.3507194 L42.4913309,30.3507194 L42.4913309,37.1797122 L42.4913309,40.2147842 L42.4914928,40.2147842 Z M44.7677158,40.2147842 L44.0088669,40.2147842 L44.0088669,38.6972482 L44.7677158,38.6972482 C45.1858273,38.6972482 45.5264029,39.0371763 45.5264029,39.4560971 C45.5264029,39.875018 45.1856655,40.2147842 44.7677158,40.2147842 Z" id="Shape" fill="#333333"></path>
                        <path d="M12.1406115,39.4559353 C10.8856295,39.4559353 9.86438849,40.4771763 9.86438849,41.7323201 C9.86438849,42.9873022 10.8856295,44.008705 12.1406115,44.008705 C13.3955935,44.008705 14.4168345,42.987464 14.4168345,41.7323201 C14.4169964,40.4771763 13.3955935,39.4559353 12.1406115,39.4559353 Z M12.1406115,42.4910072 C11.7225,42.4910072 11.3819245,42.1510791 11.3819245,41.7321583 C11.3819245,41.3132374 11.7226619,40.9733094 12.1406115,40.9733094 C12.5585612,40.9733094 12.8992986,41.3132374 12.8992986,41.7321583 C12.8992986,42.1510791 12.558723,42.4910072 12.1406115,42.4910072 Z" id="Shape" fill="#333333"></path>
                        <path d="M37.1798741,39.4559353 C35.9248921,39.4559353 34.9036511,40.4771763 34.9036511,41.7323201 C34.9036511,42.9873022 35.9248921,44.008705 37.1798741,44.008705 C38.4348561,44.008705 39.4560971,42.987464 39.4560971,41.7323201 C39.456259,40.4771763 38.4348561,39.4559353 37.1798741,39.4559353 Z M37.1798741,42.4910072 C36.7617626,42.4910072 36.4210252,42.1510791 36.4210252,41.7321583 C36.4210252,41.3132374 36.7617626,40.9733094 37.1798741,40.9733094 C37.5979856,40.9733094 37.9385612,41.3132374 37.9385612,41.7321583 C37.9385612,42.1510791 37.5979856,42.4910072 37.1798741,42.4910072 Z" id="Shape" fill="#333333"></path>
                        <path d="M15.9345324,13.6578237 C15.9345324,14.9128058 16.9557734,15.9342086 18.2107554,15.9342086 C19.4657374,15.9342086 20.4869784,14.9129676 20.4869784,13.6578237 C20.4869784,12.4026799 19.4657374,11.3814388 18.2107554,11.3814388 C18.0817446,11.3814388 17.9572662,11.3989209 17.8335971,11.4193165 L13.4752338,6.33496403 L12.3227158,7.32285971 L16.4899101,12.1843165 C16.1483633,12.5826799 15.9345324,13.0933813 15.9345324,13.6578237 Z M18.9696043,13.6578237 C18.9696043,14.0759353 18.6288669,14.4166727 18.2109173,14.4166727 C17.7928058,14.4166727 17.4522302,14.0759353 17.4522302,13.6578237 C17.4522302,13.2397122 17.7929676,12.8989748 18.2109173,12.8989748 C18.6288669,12.8991367 18.9696043,13.2397122 18.9696043,13.6578237 Z" id="Shape" fill="#333333"></path>
                        <path d="M17.518759,21.9701978 L17.6432374,20.4580036 C14.1324281,20.1680935 11.3819245,17.1815827 11.3819245,13.6579856 C11.3819245,11.9902338 11.9965468,10.3815647 13.1126439,9.12658273 L11.9790647,8.1181295 C10.6156295,9.65088129 9.86438849,11.6182554 9.86438849,13.6578237 C9.86438849,17.9653597 13.2264388,21.6165108 17.518759,21.9701978 Z" id="Shape" fill="#333333"></path>
                    </g>
                </g>
            </g>
        </g>
    </g>
</svg>