<?xml version="1.0" encoding="UTF-8"?>
<svg width="90px" height="90px" viewBox="0 0 90 90" version="1.1" xmlns="http://www.w3.org/2000/svg" xmlns:xlink="http://www.w3.org/1999/xlink">
    <!-- Generator: Sketch 46.2 (44496) - http://www.bohemiancoding.com/sketch -->
    <title>icon4.svg</title>
    <desc>Created with Sketch.</desc>
    <defs></defs>
    <g id="Page-1" stroke="none" stroke-width="1" fill="none" fill-rule="evenodd">
        <g id="Desktop-HD-Copy" transform="translate(-275.000000, -1647.000000)">
            <g id="Group-9" transform="translate(231.000000, 1647.000000)">
                <g id="icon4.svg" transform="translate(44.000000, 0.000000)">
                    <circle id="Oval-2-Copy-4" fill="#FFFFFF" cx="45" cy="45" r="45"></circle>
                    <g id="180921" transform="translate(21.528777, 21.528777)" fill-rule="nonzero">
                        <circle id="Oval" fill="#F9BA48" cx="23.5220504" cy="23.5218885" r="14.4166727"></circle>
                        <path d="M23.5220504,0 C17.3554317,0 11.4379317,2.43938849 7.05593525,6.73251799 L6.05735612,1.37784173 L4.56555755,1.65706835 L5.93821942,9.01100719 L13.5744604,9.8593705 L13.7421583,8.35170863 L8.20311151,7.73627698 C12.2929317,3.7701259 17.792482,1.5173741 23.5218885,1.5173741 C35.6545683,1.5173741 45.5260791,11.3882374 45.5260791,23.5217266 C45.5260791,30.1435252 42.5821403,36.0869245 37.9383993,40.1242986 L37.9383993,38.6970863 C37.291241,38.6970863 36.709964,38.3374101 36.4208633,37.7592086 L36.1089388,37.1355216 C37.1507374,36.9268705 37.9383993,36.0056655 37.9383993,34.9031655 C37.9383993,33.6481835 36.9171583,32.6267806 35.6621763,32.6267806 L32.6271043,32.6267806 L32.6271043,40.2144604 L34.1446403,40.2144604 L34.1446403,36.5997302 L35.0635791,38.437446 C35.596295,39.5043345 36.6554137,40.1726978 37.8422482,40.2076619 C33.990054,43.5182374 28.987446,45.5259173 23.5220504,45.5259173 C11.3893705,45.5259173 1.51785971,35.655054 1.51785971,23.5215647 C1.51785971,21.2801439 1.85859712,19.0592806 2.53149281,16.9203237 L1.08372302,16.464982 C0.364370504,18.7514029 0.000161870504,21.1255576 0.000161870504,23.5218885 C0.000161870504,36.4914388 10.5515288,47.043777 23.5218885,47.043777 C36.4922482,47.043777 47.0436151,36.4916007 47.0436151,23.5218885 C47.0436151,10.5521763 36.4922482,0 23.5220504,0 Z M34.1446403,35.6621763 L34.1446403,34.1446403 L35.6621763,34.1446403 C36.0809353,34.1446403 36.4208633,34.4853777 36.4208633,34.9034892 C36.4208633,35.3216007 36.0809353,35.6623381 35.6621763,35.6623381 L34.1446403,35.6623381 L34.1446403,35.6621763 Z" id="Shape" fill="#333333"></path>
                        <path d="M4.06343525,13.2534712 L2.72201439,12.5439928 C2.42611511,13.102446 2.17715827,13.6160612 1.9602518,14.1115468 L3.35023381,14.720018 C3.55354317,14.2588489 3.78566547,13.7792266 4.06343525,13.2534712 Z" id="Shape" fill="#333333"></path>
                        <path d="M17.8175719,25.6038669 L8.6092446,31.1291547 C7.51127698,31.7878058 6.82915468,32.9919604 6.82915468,34.2726799 C6.82915468,36.2941187 8.47343525,37.9382374 10.4947122,37.9382374 L23.5220504,37.9382374 L23.5220504,36.4208633 L10.4947122,36.4208633 C9.31030576,36.4208633 8.34669065,35.4572482 8.34669065,34.2728417 C8.34669065,33.5224101 8.74586331,32.8168165 9.38994604,32.431241 L18.5990827,26.9051439 C21.6356115,25.0832914 23.5218885,21.7516727 23.5218885,18.2104317 C23.5218885,13.6084532 19.7773381,9.86390288 15.1755216,9.86390288 C10.573705,9.86390288 6.82915468,13.6084532 6.82915468,18.2104317 L6.82915468,19.7279676 L8.34669065,19.7279676 L8.34669065,18.2104317 C8.34669065,14.4454856 11.4097662,11.3814388 15.1755216,11.3814388 C18.941277,11.3814388 22.0043525,14.4453237 22.0043525,18.2104317 C22.0045144,21.2220324 20.4003777,24.0552518 17.8175719,25.6038669 Z" id="Shape" fill="#333333"></path>
                        <path d="M34.0491367,10.2328058 L32.7227698,9.49532374 L25.3620324,22.7441007 C25.1511151,23.124982 25.0395863,23.5560432 25.0395863,23.990018 C25.0395863,25.4050899 26.1914568,26.5569604 27.6065288,26.5569604 L34.9036511,26.5569604 L34.9036511,31.1095683 L36.4210252,31.1095683 L36.4210252,26.5569604 L43.2498561,26.5569604 L43.2498561,25.0394245 L36.4210252,25.0394245 L36.4210252,9.86406475 L34.9034892,9.86406475 L34.9034892,25.0394245 L27.6063669,25.0394245 C27.0273561,25.0394245 26.5569604,24.5690288 26.5569604,23.990018 C26.5569604,23.812446 26.6032554,23.6364928 26.6890468,23.4809353 L34.0491367,10.2328058 Z" id="Shape" fill="#333333"></path>
                        <polygon id="Shape" fill="#333333" points="25.0394245 40.2147842 26.5569604 40.2147842 26.5569604 37.1797122 29.5920324 37.1797122 29.5920324 40.2147842 31.1095683 40.2147842 31.1095683 32.6271043 29.5920324 32.6271043 29.5920324 35.6621763 26.5569604 35.6621763 26.5569604 32.6271043 25.0394245 32.6271043"></polygon>
                    </g>
                </g>
            </g>
        </g>
    </g>
</svg>