<?xml version="1.0" encoding="UTF-8"?>
<svg width="90px" height="90px" viewBox="0 0 90 90" version="1.1" xmlns="http://www.w3.org/2000/svg" xmlns:xlink="http://www.w3.org/1999/xlink">
    <!-- Generator: Sketch 46.2 (44496) - http://www.bohemiancoding.com/sketch -->
    <title>icon5.svg</title>
    <desc>Created with Sketch.</desc>
    <defs></defs>
    <g id="Page-1" stroke="none" stroke-width="1" fill="none" fill-rule="evenodd">
        <g id="Desktop-HD-Copy" transform="translate(-675.000000, -1647.000000)">
            <g id="Group-10" transform="translate(555.000000, 1647.000000)">
                <g id="icon5.svg" transform="translate(120.000000, 0.000000)">
                    <circle id="Oval-2-Copy" fill="#FFFFFF" cx="45" cy="45" r="45"></circle>
                    <g id="180944" transform="translate(21.690647, 21.366906)" fill-rule="nonzero">
                        <circle id="Oval" fill="#F9BA48" cx="23.5634892" cy="20.5450899" r="10.6227518"></circle>
                        <path d="M39.3238489,3.09350719 C33.9973381,3.09350719 28.789964,2.09039568 23.8457914,0.113147482 L23.5634892,0 L23.2819964,0.112985612 C18.3371763,2.09039568 13.1296403,3.09334532 7.8031295,3.09334532 L6.1117446,3.09334532 L6.1117446,19.027554 L2.31798561,19.027554 C1.0630036,19.027554 0.0417625899,20.048795 0.0417625899,21.303777 L0.0417625899,34.2029137 C0.0417625899,35.4578957 1.0630036,36.4792986 2.31798561,36.4792986 L9.14681655,36.4792986 C9.14827338,36.4792986 9.14908273,36.4792986 9.15053957,36.4792986 C10.9427698,39.3269245 13.4261871,41.6790647 16.3869604,43.2930755 L23.5633273,47.2075899 L30.7396942,43.2930755 C37.0783813,39.8361691 41.0149101,33.2036871 41.0149101,25.9841007 L41.0149101,3.09350719 L39.3238489,3.09350719 Z M1.55913669,34.2029137 L1.55913669,21.303777 C1.55913669,20.8856655 1.89906475,20.5450899 2.31782374,20.5450899 L9.14665468,20.5450899 C9.56541367,20.5450899 9.90534173,20.8858273 9.90534173,21.303777 L9.90534173,34.2029137 C9.90534173,34.6210252 9.56541367,34.9617626 9.14665468,34.9617626 L2.31798561,34.9617626 C1.89906475,34.9617626 1.55913669,34.6210252 1.55913669,34.2029137 Z M11.4232014,22.8146763 C13.9567986,22.6774101 15.9758094,20.572446 15.9758094,18.0056655 L15.9758094,14.0956835 C15.9758094,13.0501619 16.8264388,12.198723 17.8727698,12.198723 C18.9191007,12.198723 19.7697302,13.05 19.7697302,14.0956835 L19.7697302,18.8713489 C19.7697302,20.2127698 20.8608993,21.3039388 22.2023201,21.3039388 L27.7648381,21.3039388 C29.2132554,21.3039388 30.392482,22.4823561 30.392482,23.9315827 L30.392482,32.3341187 C30.392482,33.7833453 29.2134173,34.9617626 27.7648381,34.9617626 L16.5850899,34.9617626 C15.9826079,34.9617626 15.4241547,34.6619784 15.0895683,34.1613129 C14.4734892,33.2371942 13.4422122,32.6855396 12.3314568,32.6855396 L11.4232014,32.6855396 L11.4232014,22.8146763 L11.4232014,22.8146763 Z M39.497536,25.9839388 C39.497536,32.6475 35.8638669,38.7699281 30.013705,41.9605576 L23.5634892,45.4789748 L17.1132734,41.9605576 C14.4734892,40.5203957 12.2427518,38.4466727 10.6023561,35.9381655 C11.0628777,35.5511331 11.3657374,34.9897662 11.4081475,34.3523201 C12.9392806,36.9935612 15.1442806,39.1576079 17.8402338,40.6280396 L23.5636511,43.7503597 L29.2870683,40.6280396 C34.6493525,37.7036871 37.9803237,32.0926079 37.9803237,25.9845863 L37.9803237,14.474946 L36.4627878,14.474946 L36.4627878,25.9847482 C36.4627878,31.5365827 33.4353237,36.6379317 28.5609173,39.2958453 L23.5636511,42.0214209 L18.5663849,39.2958453 C16.4282374,38.1295683 14.6321223,36.4815647 13.2822842,34.487482 C13.4940108,34.6202158 13.683723,34.788723 13.8271403,35.0035252 C14.4432194,35.9276439 15.4744964,36.4792986 16.5852518,36.4792986 L27.765,36.4792986 C30.0510971,36.4792986 31.9101799,34.6195683 31.9101799,32.3341187 L31.9101799,23.9315827 C31.9101799,21.6461331 30.051259,19.7864029 27.765,19.7864029 L22.202482,19.7864029 C21.6979317,19.7864029 21.2874281,19.3758993 21.2874281,18.8713489 L21.2874281,14.0956835 C21.2874281,12.2131295 19.7554856,10.6811871 17.8729317,10.6811871 C15.9903777,10.6811871 14.4584353,12.2131295 14.4584353,14.0956835 L14.4584353,18.0048561 C14.4584353,19.7349281 13.116205,21.1415827 11.4202878,21.2773921 C11.4126799,20.6180935 11.1205036,20.0306655 10.6645144,19.6195144 L10.6645144,7.55886691 C15.0714388,7.28805755 19.4063309,6.38741007 23.5634892,4.87732014 C27.7208094,6.3872482 32.0548921,7.28789568 36.462464,7.55886691 L36.462464,8.40496403 L37.98,8.40496403 L37.98,6.11498201 L37.2561151,6.08163669 C32.662554,5.87152878 28.1441007,4.95485612 23.8266906,3.35767986 L23.5633273,3.2597482 L23.299964,3.3568705 C18.9817446,4.95404676 14.4632914,5.87071942 9.87053957,6.08082734 L9.14665468,6.11498201 L9.14665468,19.0277158 L7.62911871,19.0277158 L7.62911871,4.61104317 L7.80280576,4.61104317 C13.2227158,4.61104317 18.5226799,3.60938849 23.5631655,1.63359712 C28.6036511,3.60938849 33.9036151,4.61104317 39.3235252,4.61104317 L39.4972122,4.61104317 L39.4972122,25.9839388 L39.497536,25.9839388 Z" id="Shape" fill="#333333"></path>
                        <rect id="Rectangle-path" fill="#333333" x="36.462464" y="11.4398741" width="1.51753597" height="1.51753597"></rect>
                        <rect id="Rectangle-path" fill="#333333" x="3.07667266" y="31.9266906" width="5.31129496" height="1.51753597"></rect>
                    </g>
                </g>
            </g>
        </g>
    </g>
</svg>