<?xml version="1.0" encoding="UTF-8"?>
<svg width="116px" height="16px" viewBox="0 0 116 16" version="1.1" xmlns="http://www.w3.org/2000/svg" xmlns:xlink="http://www.w3.org/1999/xlink">
    <!-- Generator: Sketch 46.2 (44496) - http://www.bohemiancoding.com/sketch -->
    <title>Page 1</title>
    <desc>Created with Sketch.</desc>
    <defs></defs>
    <g id="Page-1" stroke="none" stroke-width="1" fill="none" fill-rule="evenodd">
        <g id="Desktop-HD-Copy" transform="translate(-131.000000, -20.000000)" fill="#FFFFFF">
            <g id="Page-1" transform="translate(131.000000, 20.000000)">
                <path d="M11.0269781,11.5007464 C9.088067,12.6169218 6.60861774,11.9545409 5.48921674,10.0210577 C4.36965605,8.08773361 5.03411077,5.61542901 6.97302189,4.49925363 C8.911933,3.38291901 11.3913823,4.04545907 12.5107833,5.97878311 C13.6303439,7.91210716 12.9660489,10.3844118 11.0269781,11.5007464 M12.6457182,0 L5.3544415,0 C4.74396075,0 4.17978904,0.324662142 3.87446882,0.851859961 L0.228990162,7.14798081 C-0.0763300538,7.67517863 -0.0763300538,8.32466214 0.228990162,8.85185996 L3.87446882,15.1479808 C4.17978904,15.6753379 4.74396075,16 5.3544415,16 L12.6457182,16 C13.2560392,16 13.820211,15.6753379 14.1255312,15.1479808 L17.7710098,8.85185996 C18.0763301,8.32466214 18.0763301,7.67517863 17.7710098,7.14798081 L14.1255312,0.851859961 C13.820211,0.324662142 13.2560392,0 12.6457182,0" id="Fill-1"></path>
                <path d="M27.7106741,7.87942073 L30.1691388,7.87942073 C32.1127078,7.87942073 33.2474194,6.83993902 33.2474194,5.02088415 C33.2474194,3.22240854 32.1231844,2.19344512 30.1796154,2.19344512 L27.7106741,2.19344512 L27.7106741,7.87942073 Z M30.8940292,0 C33.9092959,0 36,2.02698171 36,5.02088415 C36,8.01463415 33.8462821,10.0416159 30.7784781,10.0416159 L27.7106741,10.0416159 L27.7106741,15 L25,15 L25,0 L30.8940292,0 Z" id="Fill-3"></path>
                <path d="M37.7105867,10.6750801 C37.7430517,11.8859562 38.6284741,12.7001711 39.9243804,12.7001711 C41.4147597,12.7001711 42.2244833,11.8453648 42.2244833,10.2578248 L42.2244833,0 L45,0 L45,10.2781205 C45,13.2700917 43.1209914,15 39.9568454,15 C36.987014,15 35,13.2802396 35,10.6750801 L37.7105867,10.6750801 Z" id="Fill-5"></path>
                <path d="M54.7106741,7.87942073 L57.1691388,7.87942073 C59.1127078,7.87942073 60.2474194,6.83993902 60.2474194,5.02088415 C60.2474194,3.22240854 59.1233385,2.19344512 57.1794613,2.19344512 L54.7106741,2.19344512 L54.7106741,7.87942073 Z M57.8940292,0 C60.9091418,0 63,2.02698171 63,5.02088415 C63,8.01463415 60.846128,10.0416159 57.7784781,10.0416159 L54.7106741,10.0416159 L54.7106741,15 L52,15 L52,0 L57.8940292,0 Z" id="Fill-7"></path>
                <path d="M67.7802213,9.05411585 L72.1453073,9.05411585 L70.0053082,2.6507622 L69.9306807,2.6507622 L67.7802213,9.05411585 Z M72.7946293,11.1227134 L67.1413596,11.1227134 L65.8319431,15 L63,15 L68.4509323,0 L71.5490677,0 L77,15 L74.104202,15 L72.7946293,11.1227134 Z" id="Fill-9"></path>
                <path d="M80.7767578,7.29733438 L83.9086198,7.29733438 C85.6735671,7.29733438 86.6959518,6.35130741 86.6959518,4.72982998 C86.6959518,3.14981555 85.609017,2.1725389 83.8548018,2.1725389 L80.7767578,2.1725389 L80.7767578,7.29733438 Z M80.7767578,15 L78,15 L78,0 L84.1668201,0 C87.5246863,0 89.5372596,1.79845733 89.5372596,4.66748305 C89.5372596,6.65282873 88.4608991,8.30555584 86.6099377,8.95006148 L90,15 L86.8359418,15 L83.7793619,9.35554517 L80.7767578,9.35554517 L80.7767578,15 Z" id="Fill-11"></path>
                <path d="M106.654866,10.6741153 C106.824922,12.012068 108.237227,12.8873655 110.106129,12.8873655 C111.954008,12.8873655 113.238927,12.0222476 113.238927,10.8148593 C113.238927,9.76857407 112.452963,9.16502744 110.520368,8.73246848 L108.534513,8.28972992 C105.709903,7.67615123 104.371725,6.38835887 104.371725,4.31600016 C104.371725,1.74056298 106.739894,0 110.074361,0 C113.451341,0 115.681379,1.73038338 115.745072,4.28575644 L113.132876,4.28575644 C113.005334,2.92759211 111.805287,2.11278203 110.053026,2.11278203 C108.322099,2.11278203 107.153977,2.91756004 107.153977,4.12480083 C107.153977,5.09053445 107.929351,5.65395283 109.808843,6.07647973 L111.571694,6.45887838 C114.683157,7.13294451 116,8.35021736 116,10.5131597 C116,13.2696166 113.663755,15 109.957564,15 C106.431862,15 104.116797,13.3501682 104,10.6741153 L106.654866,10.6741153 Z" id="Fill-15"></path>
                <polygon id="Fill-13" points="95.6284861 15 95.6284861 2.2660061 91 2.2660061 91 0 103 0 103 2.2660061 98.382041 2.2660061 98.382041 15"></polygon>
            </g>
        </g>
    </g>
</svg>